<svg xmlns="http://www.w3.org/2000/svg" viewBox="0 0 315.87 315.87"><defs><style>.cls-1{fill:#fff;}.cls-2{fill:#6371ea;}.cls-3{fill:#24d2b2;}.cls-4{fill:#23b6d6;}.cls-5{fill:#6370ea;}.cls-6{fill:#7460ee;}.cls-7{fill:#26d4ae;}.cls-8{fill:#5f75e9;}.cls-9{fill:#656fea;}.cls-10{fill:#5a7ae8;}.cls-11{fill:#22ceba;}.cls-12{fill:#26b3d8;}.cls-13{fill:#5d77e9;}.cls-14{fill:#22cebb;}.cls-15{fill:#6272ea;}.cls-16{fill:#666eeb;}.cls-17{fill:#23d1b5;}.cls-18{fill:#22cac1;}.cls-19{fill:#22d0b7;}.cls-20{fill:#6c67ec;}.cls-21{fill:#6075e9;}.cls-22{fill:#7164ed;}.cls-23{fill:#567fe7;}.cls-24{fill:#7063ed;}.cls-25{fill:#22cdbe;}.cls-26{fill:#22c5c9;}.cls-27{fill:#5282e6;}.cls-28{fill:#6173ea;}.cls-29{fill:#24b7d6;}.cls-30{fill:#29afd9;}.cls-31{fill:#22bcd2;}.cls-32{fill:#22c8c5;}.cls-33{fill:#4e87e5;}.cls-34{fill:#22bad3;}.cls-35{fill:#24b6d6;}.cls-36{fill:#696beb;}.cls-37{fill:#22c1ce;}.cls-38{fill:#6e66ed;}.cls-39{fill:#22ccbf;}.cls-40{fill:#577fe7;}.cls-41{fill:#5d79e9;}.cls-42{fill:#22c5ca;}.cls-43{fill:#22cac2;}.cls-44{fill:#4195e2;}.cls-45{fill:#25b2d8;}.cls-46{fill:#5a7be8;}.cls-47{fill:#22c8c6;}.cls-48{fill:#4f88e5;}.cls-49{fill:#22bed0;}.cls-50{fill:#3b9be0;}.cls-51{fill:#6c69ec;}.cls-52{fill:#23c1ce;}.cls-53{fill:#27b3d8;}.cls-54{fill:#2dabdb;}.cls-55{fill:#4a8be4;}.cls-56{fill:#31a6dd;}.cls-57{fill:#36a0df;}.cls-58{fill:#557ee7;}.cls-59{fill:#686beb;}.cls-60{fill:#4790e3;}.cls-61{fill:#468fe3;}.cls-62{fill:#2bacdb;}.cls-63{fill:#4b8ae5;}.cls-64{fill:#35a2de;}.cls-65{fill:#32a4dd;}.cls-66{fill:#4b8be4;}.cls-67{fill:#2fa8dc;}.cls-68{fill:#3f97e1;}.cls-69{fill:#33a4dd;}.cls-70{fill:#30a8dc;}.cls-71{fill:#4293e2;}.cls-72{fill:#379edf;}.cls-73{fill:#4590e3;}.cls-74{fill:#3e97e1;}.cls-75{fill:#4294e2;}.cls-76{fill:#498ee4;}.cls-77{fill:#2fa7dc;}.cls-78{fill:#3a9be0;}.cls-79{fill:#26b1d8;}.cls-80{fill:#4490e3;}.cls-81{fill:#3a9ce0;}.cls-82{fill:#2aaeda;}.cls-83{fill:#3f96e1;}.cls-84{fill:#33a2de;}.cls-85{fill:#33a3de;}.cls-86{fill:#478ee4;}.cls-87{fill:#399edf;}.cls-88{fill:#3e98e1;}.cls-89{fill:#399fe0;}</style></defs><title>Asset 2</title><g id="Layer_2" data-name="Layer 2"><g id="Layer_1-2" data-name="Layer 1"><circle class="cls-1" cx="157.93" cy="157.93" r="157.93"/></g><g id="Layer_2-2" data-name="Layer 2"><path class="cls-2" d="M218.76,238.84c-15.26,1.21-29.31-2.07-41.74-11.3-2-1.46-2.45-3.07-1.3-4.56,1.47-1.91,3.13-1.37,4.72-.16,8.15,6.14,17.42,9.29,27.49,10.3,3.2,1.2,6.45,2.27,9.64,3.48C218.38,236.91,220.11,237.19,218.76,238.84Z"/><path class="cls-3" d="M135.55,65.21a56.83,56.83,0,0,1,11.79.89,78.54,78.54,0,0,0,8.28,3c10.59,3.45,21.06,7.23,31.72,10.44a3.2,3.2,0,0,0,1.43.24,62.12,62.12,0,0,1,8,5.23c.69.55,1.33,1.16,2,1.75-1.23,1.14-2.58.59-3.89.24-2.35-.64-4.57-1.66-6.88-2.42a6.25,6.25,0,0,0-3.79-.5c-3.56-1.21-6.72-3.29-10.22-4.66a120.35,120.35,0,0,0-18.74-5.66,3.56,3.56,0,0,1-2-.73c-1.09-1.37-2.78-1.58-4.27-2.15-4-1.53-8.25-2.41-12.08-4.44C136.33,66.14,135.54,66.1,135.55,65.21Z"/><path class="cls-4" d="M254.18,157.71a130.68,130.68,0,0,0-13.83-5.66,2.73,2.73,0,0,1-2-3.67,2.65,2.65,0,0,1,3.7-1.85c8.62,2.8,16.83,6.4,23.81,12.36a15.22,15.22,0,0,1,1.57,1.81c-.49,1.43-1.55.78-2.4.57C261.35,160.38,257.79,159,254.18,157.71Z"/><path class="cls-5" d="M148.33,215.3c-5.9.91-11.83.66-17.76.42-3-.27-5.75-1.65-8.61-2.54-3.13-1-6.24-2-9.3-3.11-1.15-.43-2.67-.71-2.32-2.58,1.36-1.18,3-.82,4.45-.54a127.27,127.27,0,0,0,20.5,2.4c2.53.06,5.07-.61,7.58.1.67.33.88.75.13,1.2s-1.57.33-2.85.38c2.2,1,4.12,1.42,5.93,2.17C147.06,213.6,148.41,213.72,148.33,215.3Z"/><path class="cls-6" d="M89.23,233.5a72.8,72.8,0,0,1-13.07,7.58c-2.27,1-4.12-.18-4.17-2.7-.07-3.75,0-7.5.06-11.25,2-1.08,3.63.2,5.38.77.8.83.52,2,.87,2.94a2.84,2.84,0,0,1-.07,1.92c1.75-.76,3.25-2.23,5.3-2.62a12.17,12.17,0,0,1,4.56,1.44C88.8,231.94,89.85,232.27,89.23,233.5Z"/><path class="cls-7" d="M188.77,79.76c-.63,1.07-1.45.41-2.16.18Q173.32,75.6,160,71.23c-3.88-1.29-7.72-2.7-11.59-4-.58-.2-1.08-.38-1.1-1.1a98,98,0,0,1,31.31,8.28A57.05,57.05,0,0,1,188.77,79.76Z"/><path class="cls-8" d="M240,238.93c3.11,1.72,6.06,3.77,9.64,4.81l.19-3.31c2.16-.81,3.83.2,5.43,1.48l0,6.4c-1.12.85-2.2.19-3.25-.15-5.33-1.73-10.64-3.56-16-5.26a30.08,30.08,0,0,1-6.87-5.91c.44-1.62,1.66-1,2.54-.73C234.4,237.16,237.25,237.83,240,238.93Z"/><path class="cls-8" d="M148.33,215.3c-.69-1.33-2.13-1.37-3.3-1.83-2.08-.81-4.36-1.15-6.37-2.72,1.62-.86,3.36.2,4.74-.73a1.47,1.47,0,0,1,1.22-.71c4.22-.4,8.4-1.23,12.65-1.29a27.57,27.57,0,0,0,6.36,2.81,4.14,4.14,0,0,1,2.6,1.61A74.38,74.38,0,0,1,148.33,215.3Z"/><path class="cls-9" d="M71.94,200.07c-4.52-3.32-9-6.64-12.83-10.82,1.1-1,2.31-.54,3.46-.18a56.41,56.41,0,0,0,7.56,2.09c2.64,1.05,4.66,3,6.85,4.7A3.37,3.37,0,0,1,78.15,198,29,29,0,0,1,78,209.85c-.51.29-.75-.06-1-.42a12.33,12.33,0,0,1-.29-4.87c.1-2-.66-3.1-2.61-3.47A4.58,4.58,0,0,1,71.94,200.07Z"/><path class="cls-10" d="M166.23,212.44c-2.2-.77-4.43-1.5-6.6-2.35-.77-.3-1.79-.47-1.95-1.6a1.24,1.24,0,0,1,.71-.64c4.1-1,8.08-2.47,12.33-2.78a35.64,35.64,0,0,0,4.9,2c1,.3,2,.64,2.34,1.85A48.57,48.57,0,0,1,166.23,212.44Z"/><path class="cls-11" d="M117.31,66.22a34.47,34.47,0,0,1,7.72-.64,10,10,0,0,1,5.48.34c2.92,1,5.88,1.86,8.74,3,.95.38,2.67.66,1.44,2.46-4.47.82-9,.44-13.44.23-2.45-1.35-5.16-2-7.75-3.07C118.51,68.14,116.92,68,117.31,66.22Z"/><path class="cls-12" d="M254.18,157.71c3.92.07,7.3,2.23,11.05,2.93.74.13,1.47,1,2.24.06,3.17,2,4.54,5.38,6.52,8.3-2.79.92-5.11-.67-7.58-1.41A50,50,0,0,0,254.18,157.71Z"/><path class="cls-13" d="M240,238.93c-2.92.13-5.5-1.18-8.21-2-.87-.25-1.79-1-2.67,0l-.93-.48c-2.67,0-4.94-1.27-7.3-2.23-.64-.25-1.26-1-.16-1.62,6.14-2.67,11.66-2.78,15.92,3.47C237.4,237.29,238.83,238,240,238.93Z"/><path class="cls-14" d="M204.93,92.22A34.1,34.1,0,0,1,211,99c-.31,1.77-1.64,1.19-2.62,1-1.68-.31-3.25-1.08-5-1.25-3.58-1.86-5.88-5.25-9.1-7.55-.48-.34-1.08-.83-.54-1.6,1.12-.66,2.22-.27,3.3.08C199.67,90.5,202.29,91.38,204.93,92.22Z"/><path class="cls-15" d="M70.16,191.63c-2.5.08-4.73-1-7-1.69a8.81,8.81,0,0,0-4-.69,41,41,0,0,1-6.83-7.41c1.07-1,2.16-.31,3.23,0,1.8.49,3.5,1.43,5.45,1.24,1.17.1,1.8,1,2.59,1.7,2,1.64,3.66,3.69,5.77,5.23A1.73,1.73,0,0,1,70.16,191.63Z"/><path class="cls-16" d="M110.42,208a2.57,2.57,0,0,0,1.69,1.29c5.53,2.06,11.35,3.29,16.65,6,.54.28,1.31-.11,1.81.48a109.23,109.23,0,0,1-15.8-2.11,2.94,2.94,0,0,0-2.83.81c-1.84-.54-3.76-.91-5.11-2.48C107.27,209.94,108.1,208.28,110.42,208Z"/><path class="cls-17" d="M140.94,71.06c0-.94-.78-1.18-1.46-1.43-3.59-1.31-7.32-2.21-10.82-3.83-1-.47-2.41-.17-3.63-.22,3.48-.76,7-.4,10.52-.37,5.39,2.75,11.35,4,16.91,6.3.46.2,1.26.14.73,1a2.22,2.22,0,0,1-2,.5c-2.72-.29-5.42-.74-8.16-.89A2.45,2.45,0,0,1,140.94,71.06Z"/><path class="cls-18" d="M99.58,70.06a44.79,44.79,0,0,1,8.89-2.34c1.94.85,4,1.32,6,2.24.94.45,2.32.73,1.88,2.36-3,1.49-6.36,1.7-9.65,2.05a47.31,47.31,0,0,0-5.41-2.23C100.37,71.81,99,71.65,99.58,70.06Z"/><path class="cls-19" d="M204.93,92.22c-1,.72-1.85,0-2.75-.18-2.86-.75-5.49-2.38-8.59-2.28a1.76,1.76,0,0,1-1.81-.43c-2.19-1.58-4.44-3.07-6.73-4.51a1.32,1.32,0,0,1-.77-1.16c.19-.85.68-.57,1.28-.46,3,.56,5.78,2,8.69,2.93a10.09,10.09,0,0,0,4.51.61A32.83,32.83,0,0,1,204.93,92.22Z"/><path class="cls-20" d="M77.36,209.4l.3.5c1.16.62,1,1.78,1,2.79q.11,7.8,0,15.59c0,1,.13,2.17-1,2.79l-.3-2.95c-1.11-1.73-.56-3.65-.62-5.48-.1-3.26.3-4.11-3.46-5.09a2.83,2.83,0,0,1-1.23-.76v-8.86C74.13,207.32,75.74,208.36,77.36,209.4Z"/><path class="cls-21" d="M220.69,232.66c-.54,1.05.22,1.17.95,1.43,2.18.77,4.34,1.61,6.51,2.42a43.3,43.3,0,0,1-9.39,2.33c.56-1.73-1-1.51-1.81-1.85-3-1.3-6.44-1.56-9-3.87C212.19,233.24,216.47,233.77,220.69,232.66Z"/><path class="cls-22" d="M89.23,233.5c-1.3-2.26-3.82-2.07-5.83-2.91-.09-.15-.17-.36-.09-.43,2.69-2.11,5.27-4.41,8.61-5.5a12.29,12.29,0,0,1,3.91,1.22c.78.36,1.69.74,1.38,1.93A48.62,48.62,0,0,1,89.23,233.5Z"/><path class="cls-23" d="M178,209c-1.35-1.09-3-1.41-4.61-2-.91-.32-1.87-.54-2.37-1.5.43-1.18,1.59-1.39,2.55-1.7,2.24-.7,4.31-2,6.76-2a25.46,25.46,0,0,0,4,1.68c.92.37,2.08.61,2,2A35.7,35.7,0,0,1,178,209Z"/><path class="cls-24" d="M72.05,216.79c1.54-.14,2.85.64,4.26,1,1.15.32,1.12,1.26,1.11,2.18l-.06,8.12c-1.87.22-3.44-1.22-5.31-1Z"/><path class="cls-25" d="M116.32,72c-1.11-1.6-3-1.79-4.6-2.43-1.18-.47-2.56-.56-3.25-1.87a54.07,54.07,0,0,1,8.84-1.5c.68,1.71,2.44,1.61,3.76,2.23,1.86.87,4.16.75,5.59,2.54A14.68,14.68,0,0,1,116.32,72Z"/><path class="cls-8" d="M61.17,183.49c-1.23.76-2.36,0-3.51-.27-1.78-.48-3.44-1.5-5.38-1.38a31.75,31.75,0,0,1-5-6.87c1-1,2.14-.52,3.23-.24,1.35.35,2.62,1,4.06.92,1.29.18,1.91,1.25,2.53,2.14C58.43,179.71,60.32,181.23,61.17,183.49Z"/><path class="cls-26" d="M83.85,76.08A35.12,35.12,0,0,1,91.13,73c2.43-.18,4.43,1.1,6.54,2a1.17,1.17,0,0,1,.66,1.41c-2.44,2-5.4,2.79-8.42,3.42-1.45-.52-2.83-1.22-4.29-1.73C84.71,77.76,83.74,77.36,83.85,76.08Z"/><path class="cls-27" d="M186.25,205.48c-.79-1.46-2.42-1.37-3.67-2-.79-.39-2-.14-2.24-1.41,2.12-2.37,5-3.36,7.9-4.21,1.9,1.26,4.48,1.26,6,3.23A33.76,33.76,0,0,1,186.25,205.48Z"/><path class="cls-28" d="M236,242.9c2.57-.34,4.78.91,7.11,1.6,4.06,1.22,8,2.93,12.13,3.81-.33,2.27-1.86,2.79-3.76,2.28A41.84,41.84,0,0,1,236,242.9Z"/><path class="cls-29" d="M226.18,135.93c.83,3.95.5,7.94.35,11.92-3.47.41-5.65-1-6.1-3.9a12.47,12.47,0,0,1-.09-6.1c.65-1,1.64-.66,2.37-.38C224.47,138.12,225.55,137.63,226.18,135.93Z"/><path class="cls-30" d="M266.41,167.59c2.68-.36,5,1.29,7.57,1.41,1.66,2.19,2.19,4.81,2.89,7.37,0,1.23-.95.88-1.53.73a13.12,13.12,0,0,1-4.49-1.64A50.77,50.77,0,0,0,266.41,167.59Z"/><path class="cls-31" d="M226.18,135.93c.22,2.28-.22,3.59-2.89,2.22-.73-.38-1.75-.06-2.5-.64-1.47-2.41-1.62-5.07-1.51-7.79,1.69-1.55,4.05-1.22,6.24.88A17.76,17.76,0,0,1,226.18,135.93Z"/><path class="cls-32" d="M98.1,76.38c-.15-1-1-1.14-1.77-1.42-1.74-.65-3.47-1.32-5.2-2a34.12,34.12,0,0,1,8.45-2.92c.18,1.28,1.33,1.21,2.17,1.61,1.58.75,3.59.62,4.72,2.28A11.68,11.68,0,0,1,98.1,76.38Z"/><path class="cls-33" d="M194.24,201.1c-2-1.11-4.43-1.14-6-3a14.56,14.56,0,0,1,7-4.64c1.63,1.39,4.22,1.15,5.48,3.19A27.46,27.46,0,0,1,194.24,201.1Z"/><path class="cls-34" d="M67.09,86.45a29.06,29.06,0,0,1,5.84-4.12c2.32.34,4.8.35,6.11,2.87a15.22,15.22,0,0,1-6.69,4.49,14.09,14.09,0,0,1-4.1-1.34C67.48,88.05,66.52,87.66,67.09,86.45Z"/><path class="cls-35" d="M67.09,86.45c1.15,2.26,3.7,1.82,5.5,2.84-1.37,2.6-3.73,4-6.22,5.31a14.59,14.59,0,0,1-4.17-1.37c-.67-.27-1.36-.67-1.09-1.64A32.62,32.62,0,0,1,67.09,86.45Z"/><path class="cls-36" d="M77.36,209.4c-1.88-.09-3.49-1.15-5.31-1.47,0-2.62-.07-5.24-.11-7.86,1.69-.24,3.11.74,4.68,1,1,.19.79,1.09.79,1.77C77.42,205.05,77.38,207.23,77.36,209.4Z"/><path class="cls-37" d="M225.52,130.6c-2-.22-3.64-2.15-5.82-.89-2.21-2.08-2.14-4.84-2.29-7.55,2.25-1.79,4.15,0,6.18.58A36.12,36.12,0,0,1,225.52,130.6Z"/><path class="cls-38" d="M97.21,227.81c-1.33-2.07-3.72-1.91-5.66-2.71,1.33-2.62,3.68-4,6.22-5.2a12.33,12.33,0,0,1,4.18,1.38c.65.35,1.66.64,1.07,1.8A37.65,37.65,0,0,1,97.21,227.81Z"/><path class="cls-39" d="M202.89,98.15c1.87-.31,3.49.59,5.19,1.08,1,.29,2,.81,2.87-.28a27.15,27.15,0,0,1,4.36,6c-.34,1.63-1.57,1-2.47.88-1.58-.3-3.06-1-4.65-1.28A12.65,12.65,0,0,1,202.89,98.15Z"/><path class="cls-27" d="M39.11,156.22A24.19,24.19,0,0,1,38,148.86c2.12-.84,3.86.9,5.87.85,1.27,2.16,1.34,4.6,1.63,7A1.54,1.54,0,0,1,43.31,158C41.82,157.66,40.27,157.38,39.11,156.22Z"/><path class="cls-40" d="M39.11,156.22c1.36.38,2.74.72,4.09,1.15.82.26,1.56.58,1.74-.69,2.1,1.86,2.24,4.53,2.86,7A1.25,1.25,0,0,1,46.16,165c-1.83-.44-3.85-.55-5.1-2.31A24.71,24.71,0,0,1,39.11,156.22Z"/><path class="cls-10" d="M255.22,241.91c-1.86-.29-3.51-1.41-5.43-1.48v-7.88c2.07-.47,3.75.53,5.43,1.48Z"/><path class="cls-41" d="M54.77,176.08c-1,.74-1.87.08-2.76-.19-1.55-.46-3-1.19-4.72-.92a21.35,21.35,0,0,1-3.4-5.93c1.28-1.1,2.57-.36,3.84,0,1,.27,2,.67,3,.93A8.86,8.86,0,0,1,54.77,176.08Z"/><path class="cls-42" d="M223.59,122.74a9.18,9.18,0,0,1-3.81-.52c-.71-.27-1.5-.85-2.11.2a10,10,0,0,1-3-7.12c2.41-1.14,4.35.77,6.55,1A23.84,23.84,0,0,1,223.59,122.74Z"/><path class="cls-33" d="M261.53,218.25a28.85,28.85,0,0,1-5.78,4.61c-1.84-.86-3.87-1.32-5.49-2.62,1.65-2,3.93-3.21,5.91-4.78C257.91,216.48,260.08,216.67,261.53,218.25Z"/><path class="cls-43" d="M207.82,104.06c1.67-.24,3.09.65,4.61,1.06,1,.26,1.95.81,2.88-.12a18.7,18.7,0,0,1,2.93,5c.38,1.79-1,1.51-1.87,1.42-1.43-.12-2.78-.69-4.2-.9A10.3,10.3,0,0,1,207.82,104.06Z"/><path class="cls-44" d="M39,130.47a18.36,18.36,0,0,1,1.52-6.27c1.61,1.12,3.71,1.28,5.21,2.64a8.54,8.54,0,0,1-1.82,6.49c-1.42.62-2.68,0-3.95-.52A1.59,1.59,0,0,1,39,130.47Z"/><path class="cls-45" d="M61.11,91.59c1.38,1.75,3.63,1.68,5.41,2.58-.87,2.49-2.93,3.75-5.08,4.92-2-.41-4.26-.08-5.23-2.53A29.17,29.17,0,0,1,61.11,91.59Z"/><path class="cls-46" d="M51,170.45c-2.48.1-4.56-1.81-7.11-1.41a24.45,24.45,0,0,1-2.83-6.4c1.6.56,3.2,1.1,4.79,1.69.83.31,1.43.3,1.55-.76C49.71,165.28,50.48,167.8,51,170.45Z"/><path class="cls-47" d="M211.77,110a9.27,9.27,0,0,1,4,.67c.92.28,2,.93,2.51-.66a23.54,23.54,0,0,1,3,6.33c-.82,1.07-1.66.14-2.43,0-1.34-.31-2.58-1.06-4-.9C212.63,114.2,212.1,112.14,211.77,110Z"/><path class="cls-48" d="M43.51,149.68c-.94,1.29-1.88.09-2.8,0a20.89,20.89,0,0,1-2.75-.78c-.65-2-.39-3.94-.34-5.93a1.86,1.86,0,0,1,2.06,0c1.82.76,2.67.38,2.71-1.75,0-1.51.22-1.51,1.46-1.23C44.24,143.2,44.77,146.47,43.51,149.68Z"/><path class="cls-49" d="M78.9,85.17c-1.61-1.76-4.15-1.55-6-2.84a26.5,26.5,0,0,1,5.89-3.6c1.23.39,2.35,1,3.58,1.47.94.32,1.81.79,1.7,2A6.21,6.21,0,0,1,78.9,85.17Z"/><path class="cls-50" d="M45.45,126.69c-1.87-.42-4-.4-5-2.49a16.7,16.7,0,0,1,1.91-5.52,15.4,15.4,0,0,1,5.21,2.12A6.86,6.86,0,0,1,45.45,126.69Z"/><path class="cls-51" d="M103,223.08c-1.14-2.15-3.63-1.74-5.34-2.83a8.21,8.21,0,0,1,5-4.61c1.14.44,2.3.83,3.4,1.35.77.36,1.75.69,1.45,1.91A25.18,25.18,0,0,1,103,223.08Z"/><path class="cls-52" d="M83.82,82.28c0-1.34-1.21-1.33-2.06-1.67-1.11-.44-2.41-.55-2.94-1.88a23.69,23.69,0,0,1,5-2.65c.75,1.39,2.24,1.44,3.48,2a4.49,4.49,0,0,1,2.43,1.49C88.26,81.46,86.42,82.69,83.82,82.28Z"/><path class="cls-53" d="M221.14,143.79c-.15,1.65.33,2.72,2.22,3a15.69,15.69,0,0,1,3.17,1.1,18.74,18.74,0,0,1-.47,5c-.24.47-.26,1.26-1,1.11-1.85-.38-3.93-.38-4.89-2.51A25,25,0,0,1,220,146C220.05,145.14,220,144.14,221.14,143.79Z"/><path class="cls-54" d="M270.85,175.46c1.37-.19,2.54.48,3.8.78.7.17,1.44,1.06,2.22.13a12.33,12.33,0,0,1,1,5.36c.48,1.46-.47,1.49-1.42,1.32a11.06,11.06,0,0,1-4.24-1.64Z"/><path class="cls-55" d="M200.65,196.67c-1.67-1.32-4.26-.88-5.54-2.94.88-2,2.58-3,4.47-3.74,1.89.94,4.16,1.06,5.75,2.67A17.13,17.13,0,0,1,200.65,196.67Z"/><path class="cls-50" d="M218.1,176.9a20.77,20.77,0,0,1-3.21,5,4.44,4.44,0,0,1-5.47-2.18,6.7,6.7,0,0,1,3.27-5C214.55,175.31,216.53,175.58,218.1,176.9Z"/><path class="cls-56" d="M272.21,181.41c1.51-.22,2.76.64,4.14,1,.76.2,1.41.49,1.52-.67.72,2.14.42,4.34.36,6.52-1.21,1.79-2.69.7-4.08.35s-1.57-1.4-1.5-2.63a5.16,5.16,0,0,0-.13-2.14Z"/><path class="cls-57" d="M47.37,120.77a8.09,8.09,0,0,1-5-2.09,18.39,18.39,0,0,1,2.43-5.47,9.24,9.24,0,0,1,5.16,2A6.17,6.17,0,0,1,47.37,120.77Z"/><path class="cls-27" d="M250.26,220.24c2,.49,4.12.77,5.49,2.62-.87,1.51-.15,3.2-.53,4.76-2.06,1.06-3.73,0-5.43-1C249.85,224.5,249.17,222.3,250.26,220.24Z"/><path class="cls-58" d="M249.79,226.64c1.91-.23,3.52,1.24,5.43,1V234c-2,.09-3.6-1.05-5.43-1.48Z"/><path class="cls-59" d="M107.53,218.9c-.52-1.19-1.68-1.35-2.72-1.76-.79-.31-1.78-.29-2.27-1.2a7.44,7.44,0,0,1,4.24-4.14c1.64,1,3.77,1.1,5.16,2.62A26.71,26.71,0,0,1,107.53,218.9Z"/><path class="cls-30" d="M220.64,151.65c1.71.84,3.27,2.38,5.42,1.15a24.8,24.8,0,0,1-1,5.91c-1.69,1.19-4,.54-5.79-1.65C219.18,155.12,218.93,153.13,220.64,151.65Z"/><path class="cls-60" d="M39,130.47c.65,2.82,3.1,2.2,5,2.61,1.25,2,.4,3.89-.26,5.8-2.25.9-4-.24-5.74-1.42A19.75,19.75,0,0,1,39,130.47Z"/><path class="cls-61" d="M205.33,192.66c-2-.7-4.15-1-5.79-2.47a7.33,7.33,0,0,1,4.44-4.07c1.43,1.31,3.81,1.13,4.82,3.08C208,190.74,206.62,191.64,205.33,192.66Z"/><path class="cls-62" d="M49.86,104.55a22.74,22.74,0,0,1,3.4-4.53c1.72.81,3.76,1,5.12,2.51-.16,2.13-1.57,3.35-3.22,4.39C53.15,106.67,51,106.86,49.86,104.55Z"/><path class="cls-63" d="M261.53,218.25c-1.79-.91-4.13-.79-5.36-2.79l3.95-3.52c1.51,1.22,3.86,1,5,2.91A15.17,15.17,0,0,1,261.53,218.25Z"/><path class="cls-57" d="M218.1,176.9c-1.87-.46-3.84-.64-5.32-2.08-.3-2.12.74-3.5,2.46-4.51,1.73.57,3.62.76,5,2.16A12.6,12.6,0,0,1,218.1,176.9Z"/><path class="cls-64" d="M272.52,183.83a4.46,4.46,0,0,1,.37,1.1c.24,3,2.25,4.31,5.34,3.32.3,1.89-.42,3.62-.85,5.4-2.81.74-4.77-.25-5-2.53Z"/><path class="cls-65" d="M49.8,115.35c-1.67-.69-3.53-.95-5-2.14a16.47,16.47,0,0,1,2.57-4.73c1.78.63,3.63,1.12,5.09,2.42C52.54,113,51.38,114.28,49.8,115.35Z"/><path class="cls-66" d="M38,137.46,43.37,139c.12.12.16.23.11.33s-.09.16-.13.16A3.12,3.12,0,0,0,43,142c.24,2.33-.73,2.63-2.63,1.8-.87-.38-1.82-.6-2.73-.9v-1.5c.46-1.29-.16-2.68.36-4Z"/><path class="cls-67" d="M52.35,110.94c-1.71-.71-3.7-.84-5-2.46a15.77,15.77,0,0,1,2.47-3.93,12,12,0,0,0,5.43,2A4.86,4.86,0,0,1,52.35,110.94Z"/><path class="cls-30" d="M58.18,102.55c-1.56-1-3.81-.65-4.92-2.53a14,14,0,0,1,3-3.46c1.6,1.41,3.62,1.7,5.6,2.11C61.36,100.67,60.35,102.16,58.18,102.55Z"/><path class="cls-68" d="M209.84,179.27c.83,2.53,3.26,1.94,5,2.59a11.56,11.56,0,0,1-3.1,3.91c-2.18.47-3.72-1-5.45-1.83C206.28,181.47,207.92,180.26,209.84,179.27Z"/><path class="cls-54" d="M219.71,157.16c1.68.84,3.23,2.18,5.34,1.55,0,1.91-1.14,3.54-1.44,5.38-3,.12-4.55-.73-5.42-3.05C218.45,159.66,218,158,219.71,157.16Z"/><path class="cls-69" d="M220.22,172.47c-1.71-.64-3.7-.62-5-2.16a4.71,4.71,0,0,1,2-4.86c1.47,1.28,3.56,1.34,5,2.6A12.8,12.8,0,0,1,220.22,172.47Z"/><path class="cls-70" d="M222.21,168.05c-1.76-.63-4.14,0-5-2.52a3.56,3.56,0,0,1,1.48-4.44c.65,2.6,3.33,1.87,4.89,3A11.64,11.64,0,0,1,222.21,168.05Z"/><path class="cls-71" d="M206.26,183.74c2,.26,3.62,1.54,5.53,2a8.55,8.55,0,0,1-3,3.43c-1.42-1.32-4-.82-4.85-3A2.43,2.43,0,0,1,206.26,183.74Z"/><path class="cls-72" d="M272.39,191.12c.83,2.48,3.2,1.93,5,2.53a10.78,10.78,0,0,1-1.15,4.42c-3.09.47-4.94-.68-4.82-3C271.74,193.76,272.06,192.44,272.39,191.12Z"/><path class="cls-50" d="M271.41,195.08c-.13,1.53,1,1.8,2.1,2.11.92.26,1.81.59,2.72.88a9.85,9.85,0,0,1-1.88,3.94,6,6,0,0,1-5-2C270,198.36,270.72,196.72,271.41,195.08Z"/><path class="cls-73" d="M270,208.93c-.36,1.54-1.69,2.33-2.65,3.4-1.52.09-2.78-.7-4.09-1.27-.66-.29-1.31-.77-.73-1.69l2.49-2.9C266.83,207,268.82,207.18,270,208.93Z"/><path class="cls-74" d="M269.33,200l5,2c-.12,1.45-1.08,2.43-2,3.46-2.31.31-4.18-.49-5-2.16Z"/><path class="cls-75" d="M267.39,203.31c1.45,1.22,3.33,1.46,5,2.16a6.5,6.5,0,0,1-2.38,3.46c-1.51-1.12-3.7-.87-5-2.46C265.82,205.41,266.61,204.36,267.39,203.31Z"/><path class="cls-76" d="M262.55,209.37c.16,1.25,1.21,1.3,2.09,1.6a7,7,0,0,1,2.73,1.36,6.56,6.56,0,0,1-2.27,2.52c-1.12-.47-2.23-1-3.38-1.38-.82-.28-1.57-.49-1.6-1.53Z"/><path class="cls-48" d="M38,137.47c-.11,1.32.45,2.7-.36,4C37.61,140.09,37.34,138.74,38,137.47Z"/><path class="cls-77" d="M123.52,136a11.21,11.21,0,0,1,19.88,6.46c-2,1.17-3.77-.43-5.66-.57a3.19,3.19,0,0,1-1.27-1.09,5.49,5.49,0,0,0-6.41-2.15,3.17,3.17,0,0,1-1.44.09C127,137.7,124.87,137.54,123.52,136Z"/><path class="cls-77" d="M182.74,147.85c-.71,2.57-2.61,4.12-4.74,5.47a1.5,1.5,0,0,1-1.18.14c-4.95-1.63-10-3-14.78-5.09a9.4,9.4,0,0,1-.5-8.57c1.56,1.12,3.59,1.29,5.13,2.47a7,7,0,0,1,.72,2.32c1.32,4.28,5.75,5.31,8.81,2,.49-.52.74-1.31,1.61-1.38C179.3,146.41,181.41,146.39,182.74,147.85Z"/><path class="cls-78" d="M139,152.64a11.14,11.14,0,0,1-17.77-6.25c.92-.81,1.87-.31,2.77,0a20.89,20.89,0,0,0,4.05.94,40.36,40.36,0,0,0,5.49,1.66,30.32,30.32,0,0,0,3.93,1.79C138.24,151.06,139.44,151.23,139,152.64Z"/><path class="cls-79" d="M165.58,134.15a11.08,11.08,0,0,1,17.26,5.23c.47,1.92-.88,1.53-1.85,1.36-1.5-.27-2.89-1-4.42-1.12-1.74-.37-3.24-1.45-5-1.61-1.43-.56-2.74-1.38-4.21-1.86C166.4,135.85,165.44,135.43,165.58,134.15Z"/><path class="cls-80" d="M82.48,150.31c-1.58-2.44-2.48-5-1.66-8,1.34,1.88,3.54,2.06,5.48,2.77a2.77,2.77,0,0,1,1,1c1.69,2.95,4.42,3.22,7.39,2.93,1.74,1.15,4.19.91,5.53,2.82a7.46,7.46,0,0,1-4.51,2.93C91.35,153.22,86.9,151.81,82.48,150.31Z"/><path class="cls-81" d="M101.6,137.91a5.77,5.77,0,0,1,1.48,3.87c.57,1.75-.3,2.26-1.84,2.06a17.05,17.05,0,0,1-3.27-.9,1.78,1.78,0,0,1-.8-.54c-2.29-3.51-5.35-4.25-9.1-2.55-2-.33-4.08-.5-5.38-2.4a8.83,8.83,0,0,1,5.55-4.3c.35.45.68,1,1.23,1.16C93.49,135.6,97.32,137.51,101.6,137.91Z"/><path class="cls-65" d="M162,148.37c2.84,0,5.29,1.42,7.92,2.21s5.36,1.82,8,2.74A10.92,10.92,0,0,1,162,148.37Z"/><path class="cls-82" d="M176.19,139.09c1.79-.38,3.29.61,4.9,1.06.89.26,1.59.46,1.75-.77a9.49,9.49,0,0,1-.1,8.47c-1.65-.81-4-.34-4.91-2.55A44.71,44.71,0,0,1,176.19,139.09Z"/><path class="cls-82" d="M165.58,134.15c1.41,2.14,4.33,1.65,6,3.4-1.54,1.76-3.8,2.79-5,4.89-1.68-.85-4.09-.31-5-2.64A8.83,8.83,0,0,1,165.58,134.15Z"/><path class="cls-72" d="M101.6,137.91c-.7.89-1.59.64-2.44.36q-5-1.61-9.91-3.28c-.86-.29-1.81-.61-1-1.84a10.18,10.18,0,0,1,11.92,3.15C100.62,136.84,101.12,137.37,101.6,137.91Z"/><path class="cls-83" d="M82.69,137.45a27.06,27.06,0,0,0,5.45,2,28.51,28.51,0,0,1-1.84,5.91c-2.06-.59-4.93.25-5.48-3.06A7.23,7.23,0,0,1,82.69,137.45Z"/><path class="cls-84" d="M137.59,141.45c2-.35,3.78,1.19,5.81,1a9.14,9.14,0,0,1-1.52,6.88c-2.18.12-4.13-.28-5.26-2.43A34.64,34.64,0,0,1,137.59,141.45Z"/><path class="cls-85" d="M123.52,136c1.78.79,4,.78,5.17,2.7-.21,1.47-1.47,2.43-1.81,3.83-1,2.07-2.52,1.22-3.95.75s-2.37-1.16-1.7-2.85A7,7,0,0,1,123.52,136Z"/><path class="cls-86" d="M82.48,150.31a30.1,30.1,0,0,1,13.25,4.49C90.66,156.72,85.65,155,82.48,150.31Z"/><path class="cls-87" d="M121.23,140.41c-.12,2.56,2.19,2.06,3.52,2.78s1.28-.71,1.8-1.25c1.15,1.8,1,4,1.67,5.89-2.52.41-4.59-1.4-7-1.44A8.13,8.13,0,0,1,121.23,140.41Z"/><path class="cls-88" d="M97.64,142.44a7.8,7.8,0,0,1,3.49.77c1.39.5,2,0,2-1.42a8.1,8.1,0,0,1-.58,6.56c-2.64.43-4.44-.42-5.5-2.61C96.94,144.59,96.7,143.4,97.64,142.44Z"/><path class="cls-75" d="M97.58,145.82c1,2.18,3.26,1.73,4.92,2.53a6.47,6.47,0,0,1-2.26,3.52c-1.75-1.13-4.23-.74-5.62-2.66C95.39,147.89,96.05,146.47,97.58,145.82Z"/><path class="cls-89" d="M137,146.77c1.09,1.91,3.35,1.57,4.92,2.55a6.78,6.78,0,0,1-2.91,3.32c-.32-1.33-1.6-1.18-2.5-1.59-1.08-.48-2.42-.52-2.95-1.87A4.77,4.77,0,0,1,137,146.77Z"/></g></g></svg>