<svg xmlns="http://www.w3.org/2000/svg" viewBox="0 0 315.86 315.86"><defs><style>.cls-1{fill:#fff;}.cls-2{fill:#00c1ff;}</style></defs><title>Asset 1</title><g id="Layer_2" data-name="Layer 2"><g id="Layer_2-2" data-name="Layer 2"><circle class="cls-1" cx="157.36" cy="122.6" r="23.28"/><path class="cls-1" d="M157.93,0A157.93,157.93,0,1,0,315.86,157.93,157.93,157.93,0,0,0,157.93,0Zm-.57,66.67a55.89,55.89,0,0,1,55.88,55.93c0,22.52-7.85,28.84-50.18,90.18a6.94,6.94,0,0,1-11.44,0c-42.33-61.34-50.19-67.66-50.19-90.18A55.93,55.93,0,0,1,157.36,66.67Zm.57,182.52c-50.72,0-91.83-15.43-91.83-34.44,0-13.63,21.13-25.36,51.69-30.92l8.57,11.69c-23.85,3.34-43,11.48-43,19.23,0,11.08,33.39,20.05,74.61,20.05s74.61-9,74.61-20.09c0-7.71-19.19-16.25-43-19.58l4.3-5.71,4.27-5.59c30.56,5.56,51.69,17.29,51.69,30.92C249.76,233.76,208.65,249.19,157.93,249.19Z"/><path class="cls-2" d="M198.07,183.83l-4.27,5.59-4.3,5.71c23.85,3.33,43,11.87,43,19.58,0,11.09-33.39,20.09-74.61,20.09s-74.61-9-74.61-20.05c0-7.75,19.19-15.89,43-19.23l-8.57-11.69c-30.56,5.56-51.69,17.29-51.69,30.92,0,19,41.11,34.44,91.83,34.44s91.83-15.43,91.83-34.44C249.76,201.12,228.63,189.39,198.07,183.83Z"/><path class="cls-2" d="M163.06,212.78c42.33-61.34,50.18-67.66,50.18-90.18a55.91,55.91,0,1,0-111.81,0c0,22.52,7.86,28.84,50.19,90.18A6.94,6.94,0,0,0,163.06,212.78Zm-29-90.18a23.28,23.28,0,1,1,23.28,23.28A23.3,23.3,0,0,1,134.08,122.6Z"/></g></g></svg>