<svg xmlns="http://www.w3.org/2000/svg" viewBox="0 0 315.87 315.87"><defs><style>.cls-1{fill:#fff;}.cls-2{fill:#00c0fe;}</style></defs><title>Asset 1</title><g id="Layer_2" data-name="Layer 2"><g id="Layer_2-2" data-name="Layer 2"><circle class="cls-1" cx="157.93" cy="157.93" r="157.93"/></g><g id="Layer_1-2" data-name="Layer 1"><path class="cls-2" d="M242.72,155.07a83.24,83.24,0,0,0-.57-9.46,7.89,7.89,0,0,0-5.46-7c-3.91-1.4-7.81-2.8-11.73-4.14a2.14,2.14,0,0,1-1.51-1.49,33.45,33.45,0,0,0-1.67-4.07,1.94,1.94,0,0,1,0-1.87c1.76-3.66,3.49-7.33,5.24-11,1.48-3.1,1.43-6.13-.71-8.95a85,85,0,0,0-9.71-11,98,98,0,0,0-8.05-6.77,7.86,7.86,0,0,0-7.44-1.25,24.3,24.3,0,0,0-3.3,1.48q-4.67,2.25-9.37,4.43a1.52,1.52,0,0,1-1.39,0q-2.28-1-4.64-1.89a1.54,1.54,0,0,1-1-1c-.63-1.88-1.32-3.75-2-5.61-.82-2.28-1.57-4.58-2.45-6.83A7.43,7.43,0,0,0,172,74a19.77,19.77,0,0,0-4.6-.63c-1.6-.1-3.21-.09-4.8-.25h-9.51a27.41,27.41,0,0,1-3,.16,34.46,34.46,0,0,0-5.65.57,7.69,7.69,0,0,0-5.75,5.31c-1.39,3.94-2.79,7.87-4.16,11.82a1.85,1.85,0,0,1-1.25,1.28c-1.5.52-3,1.13-4.4,1.79a1.69,1.69,0,0,1-1.56,0c-3.9-1.79-7.73-3.7-11.63-5.49a7.58,7.58,0,0,0-7.81.48,72.14,72.14,0,0,0-10.68,9.13,50.74,50.74,0,0,0-3.52,3.8,67.6,67.6,0,0,0-4.64,5.9,7.6,7.6,0,0,0-.58,7.34c.9,2.21,2,4.34,3,6.49.9,1.9,1.82,3.8,2.69,5.71a1.19,1.19,0,0,1,.07,1.07c-.77,1.62-1.42,3.27-2,4.95a1.45,1.45,0,0,1-1,1c-1,.28-1.9.66-2.85,1-3.19,1.15-6.42,2.22-9.59,3.44A7.37,7.37,0,0,0,74,144a21.69,21.69,0,0,0-.6,4c-.29,3.9-.31,7.82-.28,11.73a88.35,88.35,0,0,0,.58,10.41,7.89,7.89,0,0,0,4,6.22,24.62,24.62,0,0,0,3.93,1.53c3.14,1.15,6.3,2.24,9.44,3.36a2.06,2.06,0,0,1,1.35,1.43,32.16,32.16,0,0,0,1.64,4,2.16,2.16,0,0,1,0,2.12q-2.79,5.66-5.41,11.39a7.57,7.57,0,0,0,.74,8.09,83.28,83.28,0,0,0,10.17,11.48,100.89,100.89,0,0,0,7.86,6.6,7.74,7.74,0,0,0,8.31.82q5.82-2.65,11.55-5.49a1.68,1.68,0,0,1,1.64,0,39.11,39.11,0,0,0,4.4,1.81,2.05,2.05,0,0,1,1.33,1.43c1.41,4,2.82,8,4.3,12a7.37,7.37,0,0,0,5.3,4.89,25.91,25.91,0,0,0,5.11.73c3.73.18,7.47.34,11.21.22a84,84,0,0,0,9.89-.68,7.77,7.77,0,0,0,6.56-5c1.55-4,2.93-8.06,4.33-12.12a2.13,2.13,0,0,1,1.41-1.47c1.47-.51,2.9-1.13,4.32-1.77a1.85,1.85,0,0,1,1.71.06c2.55,1.22,5.09,2.45,7.65,3.63a38.5,38.5,0,0,0,5.12,2.3,7.45,7.45,0,0,0,6.66-1,68.59,68.59,0,0,0,7.87-6.46,81.08,81.08,0,0,0,10.57-11.94,7.65,7.65,0,0,0,.77-7.94c-.7-1.6-1.49-3.18-2.25-4.76-1.13-2.36-2.23-4.74-3.38-7.09a1.39,1.39,0,0,1-.07-1.24c.67-1.59,1.41-3.16,2-4.79a1.71,1.71,0,0,1,1.19-1.13c4-1.42,8.1-2.84,12.12-4.32a7.49,7.49,0,0,0,5.07-5.65,41.56,41.56,0,0,0,.65-6.59c.07-1.26,0-2.52.17-3.77v-5.36C242.67,155.42,242.72,155.24,242.72,155.07Zm-41.63,6.14a43.81,43.81,0,0,1-13,28.7,41.63,41.63,0,0,1-23.5,12c-.94.15-1.88.28-2.83.36-1.26.1-2.53.14-3.9.22a42.45,42.45,0,0,1-31.95-14.71,43.45,43.45,0,0,1-10.73-23.36A44.31,44.31,0,0,1,121,134.78c6-10,14.55-16.82,25.85-19.86a41.3,41.3,0,0,1,30.84,3.39,42.89,42.89,0,0,1,16.87,15.83A44.48,44.48,0,0,1,201.09,161.21Z"/></g></g></svg>