<svg xmlns="http://www.w3.org/2000/svg" viewBox="0 0 511.83 363.15"><defs><style>.cls-1{fill:#fff;}</style></defs><title>Asset 1</title><g id="Layer_2" data-name="Layer 2"><g id="Layer_2-2" data-name="Layer 2"><path class="cls-1" d="M510.71,266.17c-13.1-72.49-92.37-107.77-154.87-68.83-2.58,1.61-4,1.5-6.24-.54-22.59-20.35-49.06-32.54-79.3-35.32-42.77-3.94-80.13,8.87-111.45,38.52-2.34,2.22-3.82,3-7,1.12A98.67,98.67,0,0,0,92.92,188a100.88,100.88,0,0,0-90.35,77.4c-.71,2.95-.35,6.26-2.57,8.79v46c5.37,12.9,15.32,16.56,28.76,16.24,28-.68,55.95-.21,83.92-.2,2,0,3.93-.62,4.46,2.87,2.29,15.17,12.8,24.05,28.21,24.06q110.66.06,221.32,0c16.86,0,28.19-11.34,28.14-28.22,0-4,1.13-4.92,5-4.9,28.14.16,56.29-.26,84.42.24,13.37.24,22.91-4.09,27.61-17.07v-44C510.33,268.6,510.9,267.21,510.71,266.17ZM116.9,302.52c.09,4.5-.17,9,.08,13.49.17,3.13-1,3.93-4,3.91-15-.14-30-.06-45-.06-14.49,0-29,0-43.46,0-6.66,0-8.1-1.32-7.95-7.82.34-14.6-1.23-29.28,2.24-43.76C31.53,215.38,93,187.88,140.81,213.71c2.58,1.4,3.84,2.31,1.62,5.41C124.58,244,116.28,271.92,116.9,302.52Zm261.63,30.12c0,10.47-3.35,13.86-13.7,13.87q-54.46,0-108.95,0-54.72,0-109.44,0c-9.07,0-13.2-3.53-13.07-11.91.22-14.64-.53-29.28.35-43.92,3.3-55.36,46.05-102.77,100.86-111.54,40.62-6.5,76.36,4,106.29,32.2,25.57,24.08,37.57,54.34,37.66,89.38Q378.58,316.67,378.53,332.64Zm116.69-26c0,5.53-1.26,6.7-6.89,6.72-14.82,0-29.64,0-44.46,0-11.66,0-23.32.06-35,0-4.46,0-10.22,1.86-13-.76s-.92-8.51-.9-12.94a136.35,136.35,0,0,0-16-65.22,121.42,121.42,0,0,0-12.75-19.64c-1.78-2.2-2.29-3.35.72-5.09,56.07-32.43,124.57,5.17,128,67C495.55,286.65,495.25,296.66,495.22,306.65Z"/><path class="cls-1" d="M253.06,151.1c42,0,76.17-33.95,76.17-75.66S295.3,0,253,0s-76.2,33.66-76.19,75.48S211.05,151.12,253.06,151.1Zm.14-134.76c32.74.07,59.71,26.86,59.66,59.27s-27,58.87-60,58.8S193,107.61,193.17,75.29,220.47,16.28,253.2,16.34Z"/><path class="cls-1" d="M410.61,169.24c32.72,0,59.3-26.36,59.29-58.8s-26.73-58.85-59.34-58.89c-32.39,0-59.53,26.87-59.43,58.93C351.22,142.79,378,169.24,410.61,169.24Zm.06-101c23.57,0,43,19.26,42.84,42.32-.19,23.32-19.42,42.23-43,42.27a42.67,42.67,0,0,1-42.71-42.43C367.85,87,387,68.18,410.67,68.22Z"/><path class="cls-1" d="M100.53,173.28c33.06.21,59.91-25.9,60.17-58.53C161,82.69,134,55.82,101.45,55.66c-32.31-.17-59.32,26.22-59.52,58.17A59,59,0,0,0,100.53,173.28Zm.66-101c23.65,0,42.81,18.89,42.83,42.25s-19.17,42.32-42.75,42.43a43,43,0,0,1-43-42.35C58.12,91.57,77.68,72.26,101.19,72.25Z"/></g></g></svg>