<svg width="191" height="199" viewBox="0 0 191 199" fill="none" xmlns="http://www.w3.org/2000/svg">
<path opacity="0.836" fill-rule="evenodd" clip-rule="evenodd" d="M129.459 23.7971C129.359 23.4686 129.193 23.4132 128.962 23.6312C128.962 23.5206 128.907 23.4654 128.797 23.4654C128.797 23.2444 128.686 23.1337 128.465 23.1337C128.465 23.189 128.465 23.2444 128.465 23.2996C127.824 23.0188 127.244 22.6319 126.726 22.1387C126.777 21.9008 126.75 21.6797 126.643 21.4754C126.694 21.3414 126.777 21.2308 126.892 21.1437C128.264 21.9198 129.506 22.6107 130.619 23.2167C130.48 23.4929 130.562 23.5206 130.867 23.2996C131.118 23.4251 131.339 23.5909 131.53 23.7971C134.269 21.5562 137.389 20.5889 140.889 20.895C141.031 21.0093 141.142 21.1474 141.221 21.3096C138.028 21.6006 135.157 22.7062 132.607 24.6262C134.727 26.0333 136.742 27.5812 138.653 29.2696C139.935 28.3935 141.288 27.6748 142.712 27.1137C143.076 27.1288 143.131 27.0184 142.877 26.7821C143.044 26.7094 143.044 26.599 142.877 26.4504C143.277 26.7051 143.719 26.871 144.203 26.9479C146.012 26.5207 147.834 26.4101 149.669 26.6162C149.697 26.8355 149.642 27.029 149.503 27.1967C148.122 27.4056 146.742 27.6267 145.362 27.86C145.203 28.0502 145.259 28.216 145.528 28.3575C146.517 29.2372 147.511 30.1216 148.51 31.0108C148.769 31.1893 149.045 31.3274 149.338 31.4254C150.382 31.3005 151.431 31.2176 152.485 31.1767C151.627 30.7342 151.13 30.0432 150.994 29.1037C151.072 28.8328 151.238 28.6394 151.491 28.5233C151.933 28.4127 152.375 28.4127 152.817 28.5233C172.231 44.1996 183.138 64.5694 185.533 89.6329C187.409 116.612 179.623 140.326 162.176 160.775C140.457 184.536 113.538 194.624 81.4193 191.04C57.3831 186.964 38.5813 174.886 25.0139 154.805C22.8792 151.527 21.0019 148.1 19.3816 144.524C19.0281 143.883 18.9453 143.22 19.1331 142.534C19.5529 142.32 19.967 142.32 20.3755 142.534C21.796 145.323 23.3421 148.032 25.0139 150.66C25.5802 149.76 26.2704 148.959 27.0845 148.255C28.0573 147.631 28.996 146.967 29.9007 146.265C28.8754 144.185 27.9643 142.057 27.1674 139.88C26.9215 139.175 26.8111 138.456 26.8361 137.725C28.2271 140.454 29.6628 143.163 31.1431 145.85C33.121 144.957 35.1917 144.376 37.3551 144.109C35.3766 140.35 34.0513 136.398 33.3794 132.252C34.8259 136.201 36.5101 140.071 38.4319 143.86C40.6689 143.951 42.9052 144.117 45.1409 144.358C45.1961 144.303 45.2514 144.247 45.3066 144.192C45.1086 143.819 44.943 143.432 44.8096 143.031C44.8928 142.862 45.0031 142.834 45.1409 142.948C50.6821 153.484 58.1365 162.439 67.5043 169.813C80.813 179.632 95.722 183.723 112.231 182.085C118.533 181.267 124.552 179.5 130.288 176.778C133.363 174.934 136.51 173.221 139.73 171.637C146.723 167.346 152.328 161.68 156.544 154.64C163.353 142.799 166.997 130.03 167.477 116.332C168.33 95.1704 163.857 75.215 154.059 56.4662C148.064 45.3131 139.974 35.9988 129.791 28.5233C129.478 28.4963 129.229 28.6346 129.045 28.9379C128.99 28.6062 128.935 28.2746 128.879 27.9429C122.926 23.7064 116.328 21.053 109.084 19.9829C109.084 19.7619 109.084 19.5406 109.084 19.3196C116.325 20.3887 123.034 22.8762 129.211 26.7821C129.435 25.9728 129.849 25.2818 130.453 24.7092C130.102 24.4158 129.771 24.1118 129.459 23.7971ZM128.465 23.1337C128.335 23.0868 128.224 23.0039 128.134 22.885C128.352 22.7974 128.462 22.8804 128.465 23.1337ZM128.465 23.2996C128.465 23.2444 128.465 23.189 128.465 23.1337C128.686 23.1337 128.797 23.2444 128.797 23.4654C128.686 23.4102 128.576 23.3548 128.465 23.2996ZM131.281 25.6212C133.289 27.2096 135.277 28.8402 137.245 30.5133C136.882 30.9603 136.55 31.4301 136.251 31.9229C134.357 30.3029 132.369 28.8104 130.288 27.4454C130.108 27.302 130.081 27.1361 130.205 26.9479C130.536 26.4784 130.895 26.0363 131.281 25.6212ZM142.712 27.1137C143.076 27.1288 143.131 27.0184 142.877 26.7821C142.513 26.767 142.458 26.8774 142.712 27.1137ZM143.209 28.2746C143.482 28.4578 143.759 28.4854 144.037 28.3575C145.201 29.5789 146.416 30.7397 147.681 31.84C146.362 32.4151 145.202 33.2166 144.203 34.2446C142.657 32.9189 141.167 31.537 139.73 30.0987C140.826 29.3568 141.986 28.7487 143.209 28.2746ZM138.073 31.2596C139.851 32.6232 141.507 34.1434 143.043 35.82C142.734 36.3485 142.43 36.8735 142.132 37.3954C140.492 35.6431 138.753 34.0124 136.914 32.5033C137.334 32.1103 137.721 31.6957 138.073 31.2596ZM150.994 32.4204C152.18 32.3523 153.34 32.4904 154.473 32.835C156.345 34.4321 158.167 36.0905 159.94 37.81C158.647 37.9161 157.377 38.082 156.13 38.3075C154.252 36.4281 152.375 34.5486 150.497 32.6692C150.702 32.6307 150.868 32.5478 150.994 32.4204ZM149.835 34.0787C151.404 35.623 152.895 37.2536 154.307 38.9708C153.092 39.6343 151.932 40.3806 150.829 41.2096C149.067 39.2247 147.245 37.2901 145.362 35.4054C146.31 34.1862 147.525 33.44 149.007 33.1667C149.487 33.3922 149.763 33.6962 149.835 34.0787ZM144.037 36.8979C144.516 37.1271 144.93 37.4588 145.279 37.8929C146.66 39.3854 148.04 40.8779 149.421 42.3704C149.119 43.1419 148.76 43.9158 148.344 44.6921C146.717 42.7639 145.088 40.8293 143.457 38.8879C143.562 38.2118 143.755 37.5485 144.037 36.8979ZM159.277 38.8879C159.832 38.8605 160.384 38.8882 160.934 38.9708C163.637 41.8144 166.122 44.8271 168.388 48.0087C166.952 47.9986 165.516 48.0262 164.081 48.0917C161.887 45.1213 159.568 42.2467 157.124 39.4683C157.856 39.2441 158.573 39.0506 159.277 38.8879ZM154.804 40.2146C155.485 40.4763 156.065 40.9184 156.544 41.5412C158.366 43.8077 160.188 46.074 162.01 48.3404C162.124 48.4784 162.097 48.5888 161.928 48.6721C160.75 49.1231 159.646 49.7036 158.614 50.4133C158.402 50.5268 158.208 50.4991 158.035 50.3304C156.084 47.5869 154.013 44.9335 151.823 42.3704C152.763 41.5689 153.757 40.8504 154.804 40.2146ZM150.497 43.6971C152.717 46.1683 154.787 48.7664 156.709 51.4912C156.82 51.6571 156.82 51.8229 156.709 51.9887C155.978 52.8438 155.371 53.7836 154.887 54.8079C153.268 52.1377 151.584 49.512 149.835 46.9308C149.89 46.8756 149.945 46.8202 150 46.765C149.725 46.3284 149.643 45.8586 149.752 45.3554C149.957 44.7786 150.206 44.2259 150.497 43.6971ZM165.572 49.1696C166.622 49.1421 167.672 49.1696 168.719 49.2525C169.109 49.3099 169.412 49.5034 169.631 49.8329C171.86 53.0826 173.737 56.5099 175.263 60.1146C173.986 59.8094 172.689 59.5882 171.37 59.4512C169.437 56.0225 167.34 52.7058 165.075 49.5012C165.258 49.3891 165.423 49.2787 165.572 49.1696ZM162.59 49.9987C162.863 49.9633 163.111 50.0186 163.336 50.1646C165.514 53.2041 167.53 56.355 169.382 59.6171C168.367 59.9978 167.318 60.3572 166.235 60.695C165.849 60.8885 165.461 61.0819 165.075 61.2754C163.274 58.0917 161.341 54.9961 159.277 51.9887C160.342 51.2355 161.447 50.5722 162.59 49.9987ZM157.786 53.1496C159.85 55.9953 161.727 58.9803 163.418 62.1046C162.191 63.0848 161.169 64.2457 160.354 65.5871C159.063 62.7822 157.683 60.0182 156.212 57.2954C156.078 56.489 156.189 55.715 156.544 54.9737C156.93 54.3399 157.344 53.732 157.786 53.1496ZM172.364 60.7779C173.671 60.6872 174.913 60.9083 176.091 61.4412C178.51 66.6894 180.305 72.1065 181.475 77.6929C180.647 77.2787 179.792 76.947 178.907 76.6979C177.078 71.3231 174.842 66.127 172.198 61.1096C172.258 60.9963 172.314 60.8857 172.364 60.7779ZM170.045 61.1096C172.944 65.9748 175.263 71.1156 177.002 76.5321C175.352 76.4172 173.75 76.6384 172.198 77.1954C170.374 72.3027 168.277 67.5212 165.903 62.8508C165.926 62.7228 165.983 62.6122 166.069 62.5192C167.384 61.9611 168.709 61.4912 170.045 61.1096ZM163.915 63.7629C164.134 63.7347 164.328 63.7899 164.495 63.9287C166.816 68.386 168.832 72.9741 170.542 77.6929C168.746 78.6891 167.227 80.0157 165.986 81.6729C164.563 76.9281 162.989 72.2295 161.265 67.5771C161.42 66.9346 161.668 66.3267 162.01 65.7529C162.568 65.0019 163.203 64.3385 163.915 63.7629ZM180.647 91.1254C179.008 90.781 177.352 90.5598 175.677 90.4621C174.789 86.4383 173.795 82.486 172.695 78.605C174.284 77.966 175.914 77.7727 177.582 78.0246C178.995 82.3023 180.015 86.6691 180.647 91.1254ZM179.321 78.0246C180.425 78.2027 181.336 78.7002 182.055 79.5171C182.979 83.7873 183.532 88.099 183.711 92.4521C183.168 92.2375 182.726 91.9058 182.386 91.4571C181.65 86.9109 180.63 82.4334 179.321 78.0246ZM170.873 79.3512C170.976 79.3697 171.058 79.4249 171.121 79.5171C172.258 83.2656 173.224 87.052 174.02 90.8767C171.676 91.4019 169.826 92.6456 168.471 94.6079C167.952 91.1589 167.318 87.7316 166.566 84.3262C166.998 82.8264 167.827 81.5827 169.051 80.595C169.669 80.1766 170.277 79.762 170.873 79.3512ZM176.008 92.1204C177.058 92.0929 178.109 92.1204 179.156 92.2033C179.73 92.2532 180.284 92.3914 180.812 92.6179C181.632 96.9997 181.935 101.422 181.723 105.885C180.256 105.349 178.737 105.073 177.168 105.055C177.002 100.752 176.616 96.4405 176.008 92.1204ZM173.855 92.6179C174.02 92.6037 174.158 92.659 174.269 92.7837C174.912 96.9054 175.269 101.051 175.346 105.221C173.172 105.438 171.267 106.268 169.631 107.709C169.423 104.276 169.201 100.848 168.968 97.4271C169.866 95.064 171.494 93.4608 173.855 92.6179ZM182.634 93.2812C183.022 93.3784 183.382 93.5443 183.711 93.7787C184.003 97.9974 183.893 102.254 183.38 106.548C183.428 102.106 183.179 97.6835 182.634 93.2812ZM177.168 106.548C178.77 106.52 180.289 106.852 181.723 107.543C181.657 113.154 180.94 118.681 179.57 124.126C179.106 123.496 178.583 122.916 177.996 122.385C177.221 121.883 176.504 121.33 175.843 120.727C176.671 116.002 177.111 111.275 177.168 106.548ZM175.014 106.714C175.233 107.171 175.342 107.696 175.346 108.289C175.208 112.287 174.822 116.294 174.186 120.312C173.398 120.127 172.597 120.016 171.784 119.98C170.851 120.056 169.94 120.194 169.051 120.395C169.435 116.905 169.629 113.395 169.631 109.865C170.278 109 171.08 108.31 172.033 107.792C173.015 107.345 174.009 106.985 175.014 106.714ZM171.039 121.639C171.983 121.618 172.922 121.673 173.855 121.805C172.766 127.752 171.027 133.501 168.637 139.051C167.431 138.563 166.629 137.706 166.235 136.481C167.388 132.144 168.244 127.75 168.802 123.297C169.309 122.396 170.055 121.844 171.039 121.639ZM175.511 122.634C177.058 123.325 178.273 124.403 179.156 125.868C177.537 130.573 175.578 135.133 173.275 139.549C172.269 139.956 171.249 139.983 170.21 139.632C172.592 134.165 174.358 128.499 175.511 122.634ZM165.572 138.554C166.341 139.27 167.169 139.906 168.057 140.461C166.293 144.63 164.167 148.582 161.679 152.318C161.389 152.131 161.085 151.965 160.768 151.82C160.583 151.618 160.556 151.397 160.685 151.157C162.732 147.115 164.361 142.914 165.572 138.554ZM169.713 140.875C170.601 140.936 171.486 141.047 172.364 141.207C170.141 145.274 167.628 149.144 164.827 152.815C164.291 153.179 163.712 153.234 163.087 152.981C165.595 149.122 167.803 145.087 169.713 140.875ZM40.3369 144.855C42.1724 144.884 43.9946 145.05 45.8035 145.353C47.0978 147.834 48.4784 150.266 49.9449 152.65C49.8897 152.705 49.8344 152.76 49.7793 152.815C47.8605 152.234 45.9279 152.179 43.9813 152.65C42.1842 150.296 40.5828 147.808 39.1773 145.187C39.5864 145.076 39.9728 144.966 40.3369 144.855ZM36.8582 145.187C37.2379 145.145 37.5968 145.2 37.9349 145.353C39.2597 147.896 40.7506 150.328 42.4076 152.65C42.4876 152.807 42.5151 152.973 42.4904 153.147C40.7931 153.711 39.3299 154.651 38.1006 155.966C35.7147 153.136 33.5888 150.123 31.7229 146.928C31.79 146.772 31.9005 146.661 32.0542 146.597C33.6415 146.002 35.2429 145.532 36.8582 145.187ZM30.232 147.343C30.397 147.329 30.535 147.384 30.6461 147.509C32.5462 150.844 34.672 154.023 37.0238 157.044C35.7109 158.829 34.7446 160.792 34.1249 162.931C30.9397 159.454 28.0959 155.722 25.5937 151.738C26.7459 149.837 28.292 148.372 30.232 147.343ZM159.774 152.815C160.156 153.062 160.542 153.311 160.934 153.562C159.877 155.096 158.801 156.616 157.703 158.122C157.249 158.002 157.084 157.726 157.206 157.293C158.15 155.845 159.006 154.353 159.774 152.815ZM46.6318 153.313C47.9821 153.4 49.3625 153.594 50.7732 153.893C53.4901 157.942 56.5822 161.701 60.0499 165.17C58.8503 165.464 57.6633 165.823 56.4883 166.248C52.1569 162.576 48.2915 158.485 44.8924 153.976C44.8169 153.77 44.8997 153.632 45.1409 153.562C45.6702 153.532 46.1672 153.449 46.6318 153.313ZM42.8218 154.142C43.1898 154.089 43.4937 154.199 43.7329 154.474C47.041 158.947 50.7682 163.066 54.9146 166.828C53.6695 167.478 52.5099 168.253 51.4358 169.15C51.3253 169.261 51.215 169.261 51.1045 169.15C46.7175 165.394 42.6313 161.331 38.846 156.961C40.0016 155.775 41.3269 154.836 42.8218 154.142ZM162.093 154.308C162.5 154.395 162.887 154.533 163.253 154.723C161.968 156.451 160.56 158.082 159.029 159.615C158.891 159.476 158.752 159.338 158.614 159.2C159.943 157.679 161.103 156.048 162.093 154.308ZM37.6865 158.122C38.7062 158.992 39.6173 159.987 40.4198 161.107C43.4302 164.421 46.6605 167.488 50.1106 170.311C48.9399 171.483 48.0288 172.838 47.3773 174.374C43.0386 171.341 39.0077 167.913 35.2845 164.092C35.353 162.999 35.6292 161.949 36.1127 160.941C36.6413 159.993 37.166 159.053 37.6865 158.122ZM156.461 158.454C157.042 158.556 157.18 158.832 156.875 159.283C155.85 160.671 154.745 161.997 153.562 163.263C153.296 163.169 153.186 163.003 153.231 162.765C154.349 161.353 155.426 159.916 156.461 158.454ZM155.633 163.097C156.304 162.064 157.077 161.097 157.952 160.195C158.155 160.102 158.32 160.157 158.449 160.361C157.532 161.307 156.593 162.219 155.633 163.097ZM152.485 163.595C152.794 163.652 152.932 163.818 152.899 164.092C151.685 165.419 150.47 166.745 149.255 168.072C149.097 167.893 148.959 167.699 148.841 167.492C150.15 166.264 151.365 164.965 152.485 163.595ZM60.2155 166.248C60.7776 166.175 61.2745 166.314 61.7064 166.662C64.9511 169.72 68.4298 172.457 72.1427 174.871C71.3864 175.181 70.641 175.513 69.9063 175.866C65.5171 173.351 61.4033 170.448 57.565 167.16C58.4273 166.752 59.3107 166.449 60.2155 166.248ZM55.7428 167.74C59.7253 171.034 63.9219 174.047 68.3326 176.778C67.42 177.498 66.5917 178.301 65.8478 179.183C61.0254 176.536 56.4976 173.468 52.2641 169.979C53.3781 169.147 54.5377 168.4 55.7428 167.74ZM147.847 168.238C148.247 168.389 148.385 168.664 148.261 169.067C147.516 169.813 146.77 170.56 146.025 171.306C145.715 171.571 145.384 171.737 145.031 171.803C144.886 171.54 144.72 171.291 144.534 171.057C145.712 170.193 146.816 169.253 147.847 168.238ZM50.9388 171.057C55.3241 174.588 59.9624 177.767 64.8538 180.592C64.4525 181.41 64.1488 182.267 63.9427 183.163C58.4728 180.964 53.31 178.228 48.454 174.954C49.0545 173.501 49.8828 172.203 50.9388 171.057ZM143.374 171.72C143.702 171.938 143.978 172.215 144.203 172.55C143.306 173.233 142.395 173.896 141.469 174.54C141.253 174.185 141.004 173.853 140.724 173.545C141.676 173.014 142.559 172.407 143.374 171.72ZM139.564 174.042C139.916 174.306 140.247 174.609 140.558 174.954C139.526 175.71 138.449 176.402 137.328 177.027C137.085 176.568 136.781 176.153 136.417 175.783C137.476 175.198 138.525 174.618 139.564 174.042ZM72.9709 175.7C73.2524 175.674 73.5285 175.702 73.7992 175.783C76.8345 177.551 79.9819 179.098 83.2415 180.427C82.7704 180.788 82.3009 181.148 81.8335 181.505C78.2737 180.18 74.8226 178.604 71.48 176.778C71.2592 176.667 71.2592 176.558 71.48 176.447C72.0015 176.211 72.4985 175.962 72.9709 175.7ZM135.257 176.198C135.892 176.422 136.251 176.863 136.334 177.525C135.424 177.981 134.54 178.478 133.683 179.017C133.44 178.558 133.137 178.143 132.772 177.773C133.611 177.244 134.439 176.719 135.257 176.198ZM69.3265 177.525C73.041 179.495 76.8511 181.291 80.7567 182.914C80.155 183.707 79.5753 184.508 79.0173 185.319C74.8549 183.801 70.8517 181.951 67.0074 179.763C67.747 178.979 68.5201 178.233 69.3265 177.525ZM131.944 178.022C132.46 178.342 132.764 178.783 132.855 179.349C131.771 179.946 130.667 180.5 129.542 181.007C129.402 180.476 129.153 180.007 128.797 179.598C129.902 179.155 130.951 178.629 131.944 178.022ZM127.637 180.012C128.172 180.362 128.503 180.859 128.631 181.505C127.363 181.931 126.121 182.428 124.904 182.997C124.386 182.553 124.138 182.027 124.158 181.422C125.368 181.029 126.527 180.559 127.637 180.012ZM84.4011 180.841C87.878 182.015 91.4121 182.982 95.003 183.743C94.6098 184.082 94.2785 184.468 94.0091 184.904C90.258 184.315 86.6136 183.32 83.0759 181.919C83.5488 181.583 83.9906 181.223 84.4011 180.841ZM66.0134 181.173C70.086 183.46 74.3377 185.34 78.7688 186.811C78.7688 186.977 78.7688 187.143 78.7688 187.309C74.246 186.509 69.8286 185.32 65.5165 183.743C65.3379 183.632 65.2274 183.466 65.1852 183.246C65.348 182.506 65.6241 181.815 66.0134 181.173ZM122.999 181.67C123.21 182.248 123.541 182.772 123.993 183.246C122.742 183.765 121.472 184.234 120.183 184.655C119.583 184.231 119.142 183.677 118.857 182.997C120.28 182.629 121.66 182.186 122.999 181.67ZM117.532 183.163C117.751 183.135 117.944 183.189 118.112 183.329C118.272 183.987 118.631 184.513 119.189 184.904C117.775 185.209 116.367 185.513 114.964 185.816C114.566 185.226 114.262 184.591 114.053 183.909C115.25 183.728 116.409 183.48 117.532 183.163ZM81.9163 183.329C85.5461 184.679 89.2458 185.811 93.0152 186.728C92.801 187.398 92.663 188.088 92.601 188.801C88.436 188.181 84.3774 187.158 80.4254 185.733C80.9035 184.912 81.4004 184.111 81.9163 183.329ZM96.1626 183.826C97.6971 184.088 99.2431 184.254 100.801 184.324C100.794 184.884 100.849 185.436 100.967 185.982C99.0498 185.921 97.1723 185.645 95.3343 185.153C95.6193 184.705 95.8954 184.262 96.1626 183.826ZM112.728 183.992C112.949 183.992 113.17 183.992 113.391 183.992C113.423 184.65 113.644 185.231 114.053 185.733C112.864 186.082 111.649 186.193 110.409 186.065C110.153 185.513 109.988 184.932 109.912 184.324C110.885 184.307 111.824 184.198 112.728 183.992ZM101.629 184.49C104.059 184.49 106.488 184.49 108.918 184.49C108.934 185.093 109.044 185.674 109.249 186.231C106.762 186.349 104.277 186.32 101.795 186.148C101.776 185.591 101.72 185.038 101.629 184.49ZM94.3404 186.977C96.591 187.367 98.855 187.67 101.132 187.889C101.429 187.959 101.65 188.125 101.795 188.387C99.2585 188.596 96.7184 188.733 94.1747 188.801C94.162 188.186 94.2172 187.577 94.3404 186.977ZM102.789 188.138C103.123 187.911 103.454 187.937 103.783 188.221C103.435 188.334 103.104 188.305 102.789 188.138Z" fill="url(#paint0_linear_311_800)"/>
<path opacity="0.01" fill-rule="evenodd" clip-rule="evenodd" d="M127.637 20.8113C127.527 20.5913 127.527 20.5913 127.637 20.8113V20.8113Z" fill="url(#paint1_linear_311_800)"/>
<path opacity="0.01" fill-rule="evenodd" clip-rule="evenodd" d="M127.637 20.8121C127.801 20.7836 127.912 20.8389 127.968 20.9779C127.804 21.0064 127.694 20.9511 127.637 20.8121Z" fill="url(#paint2_linear_311_800)"/>
<path opacity="0.01" fill-rule="evenodd" clip-rule="evenodd" d="M127.968 20.9779C128.091 20.9562 128.201 20.9839 128.3 21.0608C128.144 21.1756 128.034 21.1479 127.968 20.9779Z" fill="url(#paint3_linear_311_800)"/>
<path opacity="0.01" fill-rule="evenodd" clip-rule="evenodd" d="M138.239 23.2996C138.305 23.1296 138.415 23.1019 138.57 23.2167C138.472 23.2936 138.361 23.3213 138.239 23.2996Z" fill="url(#paint4_linear_311_800)"/>
<path opacity="0.01" fill-rule="evenodd" clip-rule="evenodd" d="M139.233 23.4654C139.454 23.5763 139.454 23.5763 139.233 23.4654V23.4654Z" fill="url(#paint5_linear_311_800)"/>
<path opacity="0.01" fill-rule="evenodd" clip-rule="evenodd" d="M128.963 23.6313C128.851 23.743 128.851 23.743 128.963 23.6313V23.6313Z" fill="url(#paint6_linear_311_800)"/>
<path opacity="0.01" fill-rule="evenodd" clip-rule="evenodd" d="M139.729 23.7962C139.619 23.5763 139.619 23.5763 139.729 23.7962V23.7962Z" fill="url(#paint7_linear_311_800)"/>
<path opacity="0.783" fill-rule="evenodd" clip-rule="evenodd" d="M64.3569 23.7971C64.8658 23.7445 65.3627 23.7997 65.8478 23.9629C46.5513 27.5164 31.6699 37.5216 21.2038 53.9788C17.7791 59.4536 14.9353 65.2025 12.6726 71.2254C12.5615 70.5007 12.6444 69.7822 12.9211 69.0696C17.3276 55.8207 24.8649 44.7374 35.5329 35.82C44.0842 29.3018 53.6922 25.2942 64.3569 23.7971Z" fill="url(#paint8_linear_311_800)"/>
<path opacity="0.01" fill-rule="evenodd" clip-rule="evenodd" d="M129.46 23.7971C129.348 23.9088 129.348 23.9088 129.46 23.7971V23.7971Z" fill="url(#paint9_linear_311_800)"/>
<path opacity="0.01" fill-rule="evenodd" clip-rule="evenodd" d="M138.901 23.9621C138.791 23.7421 138.791 23.7421 138.901 23.9621V23.9621Z" fill="url(#paint10_linear_311_800)"/>
<path opacity="0.01" fill-rule="evenodd" clip-rule="evenodd" d="M139.233 23.7971C139.454 23.908 139.454 23.908 139.233 23.7971V23.7971Z" fill="url(#paint11_linear_311_800)"/>
<path opacity="0.01" fill-rule="evenodd" clip-rule="evenodd" d="M139.73 23.7971C139.951 23.908 139.951 23.908 139.73 23.7971V23.7971Z" fill="url(#paint12_linear_311_800)"/>
<path opacity="0.01" fill-rule="evenodd" clip-rule="evenodd" d="M138.902 23.9629C139.012 23.9629 139.122 23.9629 139.233 23.9629C139.122 24.184 139.012 24.184 138.902 23.9629Z" fill="url(#paint13_linear_311_800)"/>
<path opacity="0.01" fill-rule="evenodd" clip-rule="evenodd" d="M139.729 23.9629C139.729 24.0179 139.729 24.073 139.729 24.1279C139.619 24.0486 139.619 23.9934 139.729 23.9629Z" fill="url(#paint14_linear_311_800)"/>
<path opacity="0.01" fill-rule="evenodd" clip-rule="evenodd" d="M139.73 24.1288C139.953 24.24 140.146 24.24 140.31 24.1288C140.356 24.2807 140.439 24.3911 140.558 24.4604C140.558 24.5156 140.558 24.571 140.558 24.6263C140.198 24.5848 139.922 24.419 139.73 24.1288Z" fill="url(#paint15_linear_311_800)"/>
<path opacity="0.01" fill-rule="evenodd" clip-rule="evenodd" d="M140.558 24.2946C140.779 24.4055 140.779 24.4055 140.558 24.2946V24.2946Z" fill="url(#paint16_linear_311_800)"/>
<path opacity="0.01" fill-rule="evenodd" clip-rule="evenodd" d="M140.558 24.6263C140.722 24.5977 140.833 24.6531 140.889 24.7921C140.725 24.8206 140.615 24.7652 140.558 24.6263Z" fill="url(#paint17_linear_311_800)"/>
<path opacity="0.01" fill-rule="evenodd" clip-rule="evenodd" d="M140.889 24.7921C141.142 24.78 141.308 24.8906 141.386 25.1238C141.133 25.1359 140.968 25.0253 140.889 24.7921Z" fill="url(#paint18_linear_311_800)"/>
<path opacity="0.014" fill-rule="evenodd" clip-rule="evenodd" d="M141.386 25.1237C141.594 25.1173 141.76 25.2002 141.883 25.3725C141.635 25.4695 141.47 25.3866 141.386 25.1237Z" fill="url(#paint19_linear_311_800)"/>
<path opacity="0.01" fill-rule="evenodd" clip-rule="evenodd" d="M141.22 25.4546C141.11 25.2346 141.11 25.2346 141.22 25.4546V25.4546Z" fill="url(#paint20_linear_311_800)"/>
<path opacity="0.01" fill-rule="evenodd" clip-rule="evenodd" d="M141.221 25.4554C141.442 25.5663 141.442 25.5663 141.221 25.4554V25.4554Z" fill="url(#paint21_linear_311_800)"/>
<path opacity="0.01" fill-rule="evenodd" clip-rule="evenodd" d="M140.558 26.1179C140.448 25.898 140.448 25.898 140.558 26.1179V26.1179Z" fill="url(#paint22_linear_311_800)"/>
<path opacity="0.01" fill-rule="evenodd" clip-rule="evenodd" d="M141.221 25.9529C141.442 26.0638 141.442 26.0638 141.221 25.9529V25.9529Z" fill="url(#paint23_linear_311_800)"/>
<path opacity="0.01" fill-rule="evenodd" clip-rule="evenodd" d="M142.712 25.9529C142.933 26.0638 142.933 26.0638 142.712 25.9529V25.9529Z" fill="url(#paint24_linear_311_800)"/>
<path opacity="0.01" fill-rule="evenodd" clip-rule="evenodd" d="M140.558 26.1187C140.668 26.1187 140.723 26.1737 140.723 26.2837C140.668 26.2288 140.613 26.1737 140.558 26.1187Z" fill="url(#paint25_linear_311_800)"/>
<path opacity="0.036" fill-rule="evenodd" clip-rule="evenodd" d="M142.712 26.1187C142.767 26.2294 142.822 26.3398 142.877 26.4504C142.387 26.3622 142.332 26.2516 142.712 26.1187Z" fill="url(#paint26_linear_311_800)"/>
<path opacity="0.01" fill-rule="evenodd" clip-rule="evenodd" d="M140.724 26.2846C140.945 26.3955 140.945 26.3955 140.724 26.2846V26.2846Z" fill="url(#paint27_linear_311_800)"/>
<path opacity="0.01" fill-rule="evenodd" clip-rule="evenodd" d="M141.055 26.2846C141.276 26.3955 141.276 26.3955 141.055 26.2846V26.2846Z" fill="url(#paint28_linear_311_800)"/>
<path opacity="0.774" fill-rule="evenodd" clip-rule="evenodd" d="M66.1791 28.1088C66.7122 28.1338 66.7674 28.2719 66.3448 28.5233C62.8531 29.8175 59.3744 31.1442 55.9085 32.5033C42.0008 38.5214 31.7025 48.3331 25.0139 61.9388C23.9512 64.3856 23.0126 66.8177 22.1978 69.2354C22.1426 69.1802 22.0873 69.1248 22.0321 69.0696C21.9563 68.5625 22.0116 68.065 22.1978 67.5771C26.12 55.86 32.9395 46.214 42.6561 38.6392C46.8003 35.6519 51.273 33.2196 56.0742 31.3425C59.434 30.175 62.8022 29.0971 66.1791 28.1088Z" fill="url(#paint29_linear_311_800)"/>
<path opacity="0.787" fill-rule="evenodd" clip-rule="evenodd" d="M154.97 139.051C155.191 139.051 155.412 139.051 155.633 139.051C153.318 147.968 148.735 155.514 141.883 161.687C128.056 173.269 112.319 177.027 94.6717 172.964C93.9279 172.754 93.2101 172.477 92.5182 172.135C95.9693 172.757 99.448 173.254 102.954 173.627C119.739 174.515 133.903 168.905 145.445 156.795C150.001 151.655 153.176 145.74 154.97 139.051Z" fill="url(#paint30_linear_311_800)"/>
<path opacity="0.809" fill-rule="evenodd" clip-rule="evenodd" d="M138.239 145.187C138.384 145.165 138.495 145.221 138.57 145.353C135.208 150.383 130.68 153.948 124.987 156.049C119.198 158.194 113.234 158.968 107.096 158.371C106.512 158.213 105.959 157.992 105.439 157.707C116.468 159.02 126.242 156.145 134.76 149.084C136.006 147.864 137.166 146.565 138.239 145.187Z" fill="url(#paint31_linear_311_800)"/>
<defs>
<linearGradient id="paint0_linear_311_800" x1="102.421" y1="19.3196" x2="102.421" y2="191.745" gradientUnits="userSpaceOnUse">
<stop offset="0.479167" stop-color="#00B2FF"/>
<stop offset="0.515625" stop-color="#FF5C00"/>
</linearGradient>
<linearGradient id="paint1_linear_311_800" x1="127.595" y1="20.6463" x2="127.595" y2="20.8113" gradientUnits="userSpaceOnUse">
<stop offset="0.479167" stop-color="#00B2FF"/>
<stop offset="0.515625" stop-color="#FF5C00"/>
</linearGradient>
<linearGradient id="paint2_linear_311_800" x1="127.803" y1="20.8048" x2="127.803" y2="20.9852" gradientUnits="userSpaceOnUse">
<stop offset="0.479167" stop-color="#00B2FF"/>
<stop offset="0.515625" stop-color="#FF5C00"/>
</linearGradient>
<linearGradient id="paint3_linear_311_800" x1="128.134" y1="20.9708" x2="128.134" y2="21.1302" gradientUnits="userSpaceOnUse">
<stop offset="0.479167" stop-color="#00B2FF"/>
<stop offset="0.515625" stop-color="#FF5C00"/>
</linearGradient>
<linearGradient id="paint4_linear_311_800" x1="138.405" y1="23.1473" x2="138.405" y2="23.3067" gradientUnits="userSpaceOnUse">
<stop offset="0.479167" stop-color="#00B2FF"/>
<stop offset="0.515625" stop-color="#FF5C00"/>
</linearGradient>
<linearGradient id="paint5_linear_311_800" x1="139.316" y1="23.4654" x2="139.316" y2="23.5486" gradientUnits="userSpaceOnUse">
<stop offset="0.479167" stop-color="#00B2FF"/>
<stop offset="0.515625" stop-color="#FF5C00"/>
</linearGradient>
<linearGradient id="paint6_linear_311_800" x1="128.921" y1="23.6313" x2="128.921" y2="23.715" gradientUnits="userSpaceOnUse">
<stop offset="0.479167" stop-color="#00B2FF"/>
<stop offset="0.515625" stop-color="#FF5C00"/>
</linearGradient>
<linearGradient id="paint7_linear_311_800" x1="139.688" y1="23.6313" x2="139.688" y2="23.7962" gradientUnits="userSpaceOnUse">
<stop offset="0.479167" stop-color="#00B2FF"/>
<stop offset="0.515625" stop-color="#FF5C00"/>
</linearGradient>
<linearGradient id="paint8_linear_311_800" x1="39.2363" y1="23.7779" x2="39.2363" y2="71.2254" gradientUnits="userSpaceOnUse">
<stop offset="0.479167" stop-color="#00B2FF"/>
<stop offset="0.515625" stop-color="#FF5C00"/>
</linearGradient>
<linearGradient id="paint9_linear_311_800" x1="129.418" y1="23.7971" x2="129.418" y2="23.8809" gradientUnits="userSpaceOnUse">
<stop offset="0.479167" stop-color="#00B2FF"/>
<stop offset="0.515625" stop-color="#FF5C00"/>
</linearGradient>
<linearGradient id="paint10_linear_311_800" x1="138.86" y1="23.7971" x2="138.86" y2="23.9621" gradientUnits="userSpaceOnUse">
<stop offset="0.479167" stop-color="#00B2FF"/>
<stop offset="0.515625" stop-color="#FF5C00"/>
</linearGradient>
<linearGradient id="paint11_linear_311_800" x1="139.316" y1="23.7971" x2="139.316" y2="23.8802" gradientUnits="userSpaceOnUse">
<stop offset="0.479167" stop-color="#00B2FF"/>
<stop offset="0.515625" stop-color="#FF5C00"/>
</linearGradient>
<linearGradient id="paint12_linear_311_800" x1="139.813" y1="23.7971" x2="139.813" y2="23.8802" gradientUnits="userSpaceOnUse">
<stop offset="0.479167" stop-color="#00B2FF"/>
<stop offset="0.515625" stop-color="#FF5C00"/>
</linearGradient>
<linearGradient id="paint13_linear_311_800" x1="139.067" y1="23.9629" x2="139.067" y2="24.1287" gradientUnits="userSpaceOnUse">
<stop offset="0.479167" stop-color="#00B2FF"/>
<stop offset="0.515625" stop-color="#FF5C00"/>
</linearGradient>
<linearGradient id="paint14_linear_311_800" x1="139.688" y1="23.9629" x2="139.688" y2="24.1279" gradientUnits="userSpaceOnUse">
<stop offset="0.479167" stop-color="#00B2FF"/>
<stop offset="0.515625" stop-color="#FF5C00"/>
</linearGradient>
<linearGradient id="paint15_linear_311_800" x1="140.144" y1="24.1288" x2="140.144" y2="24.6263" gradientUnits="userSpaceOnUse">
<stop offset="0.479167" stop-color="#00B2FF"/>
<stop offset="0.515625" stop-color="#FF5C00"/>
</linearGradient>
<linearGradient id="paint16_linear_311_800" x1="140.641" y1="24.2946" x2="140.641" y2="24.3777" gradientUnits="userSpaceOnUse">
<stop offset="0.479167" stop-color="#00B2FF"/>
<stop offset="0.515625" stop-color="#FF5C00"/>
</linearGradient>
<linearGradient id="paint17_linear_311_800" x1="140.724" y1="24.619" x2="140.724" y2="24.7994" gradientUnits="userSpaceOnUse">
<stop offset="0.479167" stop-color="#00B2FF"/>
<stop offset="0.515625" stop-color="#FF5C00"/>
</linearGradient>
<linearGradient id="paint18_linear_311_800" x1="141.138" y1="24.7912" x2="141.138" y2="25.1247" gradientUnits="userSpaceOnUse">
<stop offset="0.479167" stop-color="#00B2FF"/>
<stop offset="0.515625" stop-color="#FF5C00"/>
</linearGradient>
<linearGradient id="paint19_linear_311_800" x1="141.635" y1="25.1234" x2="141.635" y2="25.4117" gradientUnits="userSpaceOnUse">
<stop offset="0.479167" stop-color="#00B2FF"/>
<stop offset="0.515625" stop-color="#FF5C00"/>
</linearGradient>
<linearGradient id="paint20_linear_311_800" x1="141.179" y1="25.2896" x2="141.179" y2="25.4546" gradientUnits="userSpaceOnUse">
<stop offset="0.479167" stop-color="#00B2FF"/>
<stop offset="0.515625" stop-color="#FF5C00"/>
</linearGradient>
<linearGradient id="paint21_linear_311_800" x1="141.304" y1="25.4554" x2="141.304" y2="25.5386" gradientUnits="userSpaceOnUse">
<stop offset="0.479167" stop-color="#00B2FF"/>
<stop offset="0.515625" stop-color="#FF5C00"/>
</linearGradient>
<linearGradient id="paint22_linear_311_800" x1="140.516" y1="25.9529" x2="140.516" y2="26.1179" gradientUnits="userSpaceOnUse">
<stop offset="0.479167" stop-color="#00B2FF"/>
<stop offset="0.515625" stop-color="#FF5C00"/>
</linearGradient>
<linearGradient id="paint23_linear_311_800" x1="141.304" y1="25.9529" x2="141.304" y2="26.0361" gradientUnits="userSpaceOnUse">
<stop offset="0.479167" stop-color="#00B2FF"/>
<stop offset="0.515625" stop-color="#FF5C00"/>
</linearGradient>
<linearGradient id="paint24_linear_311_800" x1="142.795" y1="25.9529" x2="142.795" y2="26.0361" gradientUnits="userSpaceOnUse">
<stop offset="0.479167" stop-color="#00B2FF"/>
<stop offset="0.515625" stop-color="#FF5C00"/>
</linearGradient>
<linearGradient id="paint25_linear_311_800" x1="140.64" y1="26.1187" x2="140.64" y2="26.2837" gradientUnits="userSpaceOnUse">
<stop offset="0.479167" stop-color="#00B2FF"/>
<stop offset="0.515625" stop-color="#FF5C00"/>
</linearGradient>
<linearGradient id="paint26_linear_311_800" x1="142.67" y1="26.1187" x2="142.67" y2="26.4504" gradientUnits="userSpaceOnUse">
<stop offset="0.479167" stop-color="#00B2FF"/>
<stop offset="0.515625" stop-color="#FF5C00"/>
</linearGradient>
<linearGradient id="paint27_linear_311_800" x1="140.807" y1="26.2846" x2="140.807" y2="26.3677" gradientUnits="userSpaceOnUse">
<stop offset="0.479167" stop-color="#00B2FF"/>
<stop offset="0.515625" stop-color="#FF5C00"/>
</linearGradient>
<linearGradient id="paint28_linear_311_800" x1="141.138" y1="26.2846" x2="141.138" y2="26.3677" gradientUnits="userSpaceOnUse">
<stop offset="0.479167" stop-color="#00B2FF"/>
<stop offset="0.515625" stop-color="#FF5C00"/>
</linearGradient>
<linearGradient id="paint29_linear_311_800" x1="44.3122" y1="28.1088" x2="44.3122" y2="69.2354" gradientUnits="userSpaceOnUse">
<stop offset="0.479167" stop-color="#00B2FF"/>
<stop offset="0.515625" stop-color="#FF5C00"/>
</linearGradient>
<linearGradient id="paint30_linear_311_800" x1="124.075" y1="139.051" x2="124.075" y2="174.547" gradientUnits="userSpaceOnUse">
<stop offset="0.479167" stop-color="#00B2FF"/>
<stop offset="0.515625" stop-color="#FF5C00"/>
</linearGradient>
<linearGradient id="paint31_linear_311_800" x1="122.005" y1="145.182" x2="122.005" y2="158.566" gradientUnits="userSpaceOnUse">
<stop offset="0.479167" stop-color="#00B2FF"/>
<stop offset="0.515625" stop-color="#FF5C00"/>
</linearGradient>
</defs>
</svg>
