<svg width="96" height="100" viewBox="0 0 96 100" fill="none" xmlns="http://www.w3.org/2000/svg">
<g style="mix-blend-mode:darken">
<rect width="96" height="100" fill="white"/>
<path opacity="0.836" fill-rule="evenodd" clip-rule="evenodd" d="M65.0685 11.9583C65.0181 11.7933 64.9349 11.7654 64.8187 11.875C64.8187 11.8194 64.791 11.7917 64.7355 11.7917C64.7355 11.6806 64.6799 11.625 64.5689 11.625C64.5689 11.6528 64.5689 11.6806 64.5689 11.7083C64.2466 11.5673 63.9551 11.3728 63.6947 11.125C63.7206 11.0054 63.7068 10.8943 63.6531 10.7917C63.6787 10.7243 63.7204 10.6688 63.778 10.625C64.4676 11.015 65.0921 11.3622 65.6513 11.6667C65.5814 11.8055 65.623 11.8194 65.7762 11.7083C65.9021 11.7714 66.0132 11.8548 66.1093 11.9583C67.4859 10.8323 69.054 10.3462 70.8135 10.5C70.8849 10.5574 70.9403 10.6268 70.9801 10.7083C69.3754 10.8546 67.9322 11.4102 66.6505 12.375C67.716 13.0821 68.729 13.8599 69.6895 14.7083C70.3337 14.2681 71.0137 13.9069 71.7294 13.625C71.9124 13.6326 71.9401 13.5771 71.8127 13.4583C71.8964 13.4218 71.8964 13.3663 71.8127 13.2917C72.0138 13.4197 72.2359 13.503 72.4788 13.5417C73.3882 13.327 74.3041 13.2714 75.2264 13.375C75.2405 13.4852 75.2128 13.5824 75.1431 13.6667C74.4489 13.7717 73.755 13.8828 73.0616 14C72.9818 14.0956 73.0095 14.1789 73.1448 14.25C73.6422 14.6921 74.1418 15.1365 74.6435 15.5833C74.774 15.673 74.9128 15.7424 75.0598 15.7917C75.5847 15.7289 76.112 15.6873 76.6418 15.6667C76.2105 15.4443 75.9607 15.0971 75.8925 14.625C75.9314 14.4888 76.0147 14.3917 76.1422 14.3333C76.3643 14.2778 76.5863 14.2778 76.8083 14.3333C86.5665 22.2108 92.0484 32.4469 93.2524 45.0417C94.1949 58.5991 90.2816 70.5158 81.5126 80.7917C70.5962 92.7317 57.0663 97.8008 40.9228 96C28.8418 93.9517 19.3917 87.8825 12.5724 77.7917C11.4995 76.1443 10.5559 74.4221 9.74154 72.625C9.56386 72.3031 9.52223 71.9698 9.61665 71.625C9.82763 71.5177 10.0358 71.5177 10.2411 71.625C10.9551 73.0268 11.7321 74.3879 12.5724 75.7083C12.8571 75.2564 13.204 74.8537 13.6132 74.5C14.1021 74.1863 14.5739 73.853 15.0286 73.5C14.5133 72.4548 14.0554 71.3853 13.6548 70.2917C13.5313 69.9372 13.4757 69.5761 13.4883 69.2083C14.1874 70.58 14.9091 71.9412 15.6531 73.2917C16.6472 72.8425 17.688 72.5508 18.7754 72.4167C17.7809 70.5278 17.1148 68.5417 16.7771 66.4583C17.5041 68.4428 18.3507 70.3873 19.3166 72.2917C20.4409 72.3372 21.5649 72.4205 22.6886 72.5417C22.7164 72.5139 22.7442 72.4861 22.7719 72.4583C22.6724 72.2708 22.5891 72.0763 22.5221 71.875C22.5639 71.7899 22.6194 71.776 22.6886 71.8333C25.4737 77.1275 29.2205 81.6275 33.9289 85.3333C40.6181 90.2675 48.1116 92.3233 56.4094 91.5C59.5769 91.0892 62.602 90.2008 65.4848 88.8333C67.0304 87.9067 68.6124 87.0458 70.2307 86.25C73.7455 84.0933 76.5625 81.246 78.6817 77.7083C82.1041 71.7585 83.9355 65.3418 84.1769 58.4583C84.6057 47.8243 82.3573 37.7965 77.4328 28.375C74.4195 22.7704 70.3536 18.0898 65.235 14.3333C65.0779 14.3198 64.953 14.3893 64.8604 14.5417C64.8326 14.375 64.8048 14.2083 64.7771 14.0417C61.7849 11.9128 58.4684 10.5794 54.8274 10.0417C54.8274 9.93059 54.8274 9.81943 54.8274 9.70834C58.4672 10.2456 61.8393 11.4956 64.9436 13.4583C65.0564 13.0517 65.2646 12.7044 65.5681 12.4167C65.3918 12.2693 65.2253 12.1165 65.0685 11.9583ZM64.5689 11.625C64.5033 11.6014 64.4477 11.5598 64.4024 11.5C64.512 11.456 64.5675 11.4977 64.5689 11.625ZM64.5689 11.7083C64.5689 11.6806 64.5689 11.6528 64.5689 11.625C64.6799 11.625 64.7355 11.6806 64.7355 11.7917C64.6799 11.7639 64.6245 11.7361 64.5689 11.7083ZM65.9844 12.875C66.9937 13.6732 67.9928 14.4926 68.9818 15.3333C68.7991 15.5579 68.6326 15.794 68.4822 16.0417C67.5302 15.2276 66.5311 14.4776 65.4848 13.7917C65.3946 13.7196 65.3808 13.6363 65.4432 13.5417C65.6098 13.3058 65.7901 13.0836 65.9844 12.875ZM71.7294 13.625C71.9124 13.6326 71.9401 13.5771 71.8127 13.4583C71.6297 13.4508 71.6019 13.5063 71.7294 13.625ZM71.9792 14.2083C72.1168 14.3004 72.2556 14.3143 72.3955 14.25C72.9808 14.8638 73.5915 15.4471 74.2272 16C73.5641 16.289 72.9813 16.6918 72.4788 17.2083C71.7022 16.5422 70.9528 15.8478 70.2307 15.125C70.7816 14.7522 71.3645 14.4466 71.9792 14.2083ZM69.3981 15.7083C70.2914 16.3936 71.124 17.1575 71.8959 18C71.7406 18.2656 71.5879 18.5294 71.438 18.7917C70.614 17.9111 69.7397 17.0917 68.8153 16.3333C69.0267 16.1358 69.2209 15.9275 69.3981 15.7083ZM75.8925 16.2917C76.4886 16.2574 77.0714 16.3268 77.6409 16.5C78.5817 17.3026 79.4976 18.1359 80.3886 19C79.7386 19.0533 79.1003 19.1367 78.4735 19.25C77.5299 18.3056 76.5863 17.3611 75.6427 16.4167C75.7457 16.3973 75.8289 16.3557 75.8925 16.2917ZM75.3096 17.125C76.0984 17.901 76.8478 18.7204 77.5577 19.5833C76.9465 19.9168 76.3637 20.2918 75.8092 20.7083C74.9238 19.7109 74.0079 18.7388 73.0616 17.7917C73.5382 17.179 74.1488 16.804 74.8933 16.6667C75.1349 16.78 75.2737 16.9328 75.3096 17.125ZM72.3955 18.5417C72.6364 18.6568 72.8446 18.8235 73.0199 19.0417C73.7138 19.7917 74.4077 20.5417 75.1015 21.2917C74.9499 21.6793 74.7695 22.0683 74.5603 22.4583C73.7424 21.4894 72.9237 20.5173 72.1041 19.5417C72.1569 19.2019 72.254 18.8686 72.3955 18.5417ZM80.0555 19.5417C80.3344 19.5279 80.6119 19.5418 80.8881 19.5833C82.247 21.0123 83.4959 22.5262 84.6349 24.125C83.913 24.1199 83.1915 24.1338 82.4701 24.1667C81.3675 22.674 80.2019 21.2295 78.9731 19.8333C79.341 19.7207 79.7018 19.6234 80.0555 19.5417ZM77.8075 20.2083C78.1497 20.3398 78.4411 20.562 78.6817 20.875C79.5976 22.0139 80.5134 23.1528 81.4293 24.2917C81.4866 24.361 81.4727 24.4165 81.3877 24.4583C80.7958 24.685 80.2408 24.9767 79.7225 25.3333C79.6156 25.3903 79.5184 25.3764 79.431 25.2917C78.4506 23.913 77.4098 22.5797 76.3088 21.2917C76.7813 20.8889 77.2809 20.5278 77.8075 20.2083ZM75.6427 21.9583C76.758 23.2002 77.7988 24.5058 78.765 25.875C78.8205 25.9583 78.8205 26.0417 78.765 26.125C78.3974 26.5547 78.0921 27.0269 77.8491 27.5417C77.0355 26.1998 76.1889 24.8804 75.3096 23.5833C75.3374 23.5556 75.3652 23.5278 75.3929 23.5C75.2547 23.2806 75.213 23.0445 75.268 22.7917C75.3712 22.5018 75.4961 22.2241 75.6427 21.9583ZM83.2194 24.7083C83.7473 24.6945 84.2752 24.7083 84.8014 24.75C84.9971 24.7788 85.1494 24.8761 85.2593 25.0417C86.38 26.6747 87.3234 28.3969 88.0902 30.2083C87.4483 30.055 86.7963 29.9438 86.1336 29.875C85.1619 28.152 84.1078 26.4853 82.9696 24.875C83.0614 24.8187 83.1447 24.7632 83.2194 24.7083ZM81.7207 25.125C81.8576 25.1072 81.9825 25.135 82.0954 25.2083C83.1905 26.7358 84.2036 28.3191 85.1344 29.9583C84.624 30.1497 84.097 30.3303 83.5525 30.5C83.3585 30.5973 83.1639 30.6944 82.9696 30.7917C82.0642 29.1918 81.0928 27.6363 80.0555 26.125C80.591 25.7465 81.1461 25.4132 81.7207 25.125ZM79.3062 26.7083C80.3435 28.1383 81.2871 29.6383 82.137 31.2083C81.52 31.7009 81.0065 32.2843 80.5967 32.9583C79.948 31.5488 79.2542 30.1599 78.5152 28.7917C78.4478 28.3864 78.5034 27.9975 78.6817 27.625C78.8757 27.3065 79.0838 27.001 79.3062 26.7083ZM86.6331 30.5417C87.2901 30.4961 87.9145 30.6072 88.5065 30.875C89.7221 33.5123 90.6247 36.2344 91.2125 39.0417C90.7962 38.8335 90.3666 38.6668 89.9219 38.5417C89.0027 35.8408 87.8787 33.2297 86.5499 30.7083C86.5798 30.6514 86.6082 30.5958 86.6331 30.5417ZM85.4675 30.7083C86.9245 33.1532 88.0902 35.7365 88.9644 38.4583C88.1352 38.4006 87.33 38.5118 86.5499 38.7917C85.6332 36.333 84.5791 33.9303 83.3859 31.5833C83.3976 31.519 83.4259 31.4634 83.4692 31.4167C84.1303 31.1363 84.7964 30.9001 85.4675 30.7083ZM82.3868 32.0417C82.4969 32.0275 82.5941 32.0553 82.6782 32.125C83.8447 34.3648 84.858 36.6704 85.7173 39.0417C84.8147 39.5423 84.0512 40.2089 83.4276 41.0417C82.7121 38.6573 81.9211 36.2963 81.0546 33.9583C81.1325 33.6355 81.2574 33.33 81.4293 33.0417C81.7094 32.6643 82.0285 32.3309 82.3868 32.0417ZM90.7962 45.7917C89.9727 45.6186 89.1401 45.5074 88.2984 45.4583C87.8521 43.4363 87.3525 41.4503 86.7997 39.5C87.5981 39.1789 88.4174 39.0818 89.2559 39.2083C89.9661 41.3579 90.479 43.5523 90.7962 45.7917ZM90.1301 39.2083C90.6846 39.2978 91.1425 39.5478 91.5039 39.9583C91.9685 42.1042 92.2466 44.2708 92.3365 46.4583C92.0634 46.3505 91.8411 46.1838 91.6704 45.9583C91.3007 43.6738 90.7879 41.4238 90.1301 39.2083ZM85.8838 39.875C85.9354 39.8843 85.977 39.912 86.0087 39.9583C86.5798 41.842 87.0653 43.7448 87.4657 45.6667C86.2876 45.9306 85.3576 46.5556 84.6765 47.5417C84.4159 45.8085 84.097 44.0863 83.719 42.375C83.9363 41.6213 84.3526 40.9963 84.9679 40.5C85.2785 40.2898 85.584 40.0814 85.8838 39.875ZM88.4649 46.2917C88.9927 46.2778 89.5206 46.2917 90.0468 46.3333C90.3357 46.3584 90.6138 46.4278 90.8794 46.5417C91.2916 48.7436 91.444 50.9658 91.3374 53.2083C90.5997 52.9394 89.8362 52.8005 89.0477 52.7917C88.9644 50.6293 88.7704 48.4626 88.4649 46.2917ZM87.3825 46.5417C87.4657 46.5345 87.5348 46.5623 87.5906 46.625C87.9137 48.6962 88.0935 50.7795 88.1318 52.875C87.0394 52.9842 86.0819 53.4008 85.2593 54.125C85.1552 52.3998 85.0437 50.6776 84.9263 48.9583C85.3776 47.7708 86.196 46.9653 87.3825 46.5417ZM91.7953 46.875C91.9901 46.9238 92.1708 47.0072 92.3365 47.125C92.4831 49.2449 92.4281 51.3838 92.17 53.5417C92.1941 51.3094 92.0692 49.0872 91.7953 46.875ZM89.0477 53.5417C89.8528 53.5277 90.6163 53.6943 91.3374 54.0417C91.3041 56.8611 90.9436 59.6388 90.255 62.375C90.0219 62.0584 89.7587 61.7668 89.464 61.5C89.0743 61.2478 88.7138 60.97 88.3816 60.6667C88.7979 58.2923 89.0194 55.9173 89.0477 53.5417ZM87.9653 53.625C88.0752 53.8548 88.1302 54.1187 88.1318 54.4167C88.0627 56.4255 87.8687 58.4393 87.549 60.4583C87.1527 60.3652 86.7505 60.3097 86.3417 60.2917C85.873 60.3298 85.415 60.3993 84.9679 60.5C85.1611 58.7463 85.2585 56.9825 85.2593 55.2083C85.5849 54.7741 85.9879 54.4269 86.4666 54.1667C86.9603 53.942 87.4599 53.7614 87.9653 53.625ZM85.967 61.125C86.4416 61.1146 86.9137 61.1423 87.3825 61.2083C86.8355 64.197 85.9612 67.0859 84.7598 69.875C84.1536 69.6294 83.7506 69.1989 83.5525 68.5833C84.132 66.4042 84.5624 64.1958 84.843 61.9583C85.0978 61.5058 85.4725 61.2279 85.967 61.125ZM88.2151 61.625C88.9927 61.9723 89.6031 62.514 90.0468 63.25C89.2334 65.6143 88.2484 67.906 87.0911 70.125C86.5857 70.3295 86.0728 70.3434 85.5507 70.1667C86.748 67.4197 87.6356 64.5724 88.2151 61.625ZM83.2194 69.625C83.6058 69.9848 84.0221 70.3043 84.4683 70.5833C83.5816 72.6783 82.5131 74.6644 81.2628 76.5417C81.1168 76.4478 80.9641 76.3644 80.8049 76.2917C80.7121 76.1898 80.6982 76.0787 80.7632 75.9583C81.7919 73.9272 82.6107 71.8161 83.2194 69.625ZM85.301 70.7917C85.7472 70.8223 86.1918 70.8778 86.6331 70.9583C85.5158 73.0023 84.2527 74.9467 82.8448 76.7917C82.5758 76.9743 82.2844 77.002 81.9705 76.875C83.2309 74.9358 84.341 72.9081 85.301 70.7917ZM20.2741 72.7917C21.1966 72.8061 22.1125 72.8894 23.0217 73.0417C23.6722 74.2883 24.3661 75.5105 25.1032 76.7083C25.0755 76.7361 25.0477 76.7639 25.0199 76.7917C24.0555 76.4996 23.0842 76.4718 22.1058 76.7083C21.2025 75.5255 20.3976 74.2755 19.6912 72.9583C19.8968 72.9027 20.0911 72.8471 20.2741 72.7917ZM18.5256 72.9583C18.7164 72.937 18.8968 72.9648 19.0668 73.0417C19.7326 74.3196 20.482 75.5418 21.3148 76.7083C21.355 76.7873 21.3689 76.8707 21.3565 76.9583C20.5034 77.2419 19.7679 77.7141 19.15 78.375C17.9508 76.9527 16.8823 75.4388 15.9445 73.8333C15.9782 73.7546 16.0337 73.699 16.111 73.6667C16.9088 73.3677 17.7137 73.1316 18.5256 72.9583ZM15.1951 74.0417C15.2781 74.0345 15.3474 74.0623 15.4033 74.125C16.3583 75.8012 17.4268 77.3984 18.6088 78.9167C17.9489 79.8137 17.4633 80.7998 17.1518 81.875C15.5508 80.1274 14.1215 78.2524 12.8638 76.25C13.443 75.2951 14.2201 74.559 15.1951 74.0417ZM80.3053 76.7917C80.4972 76.9158 80.6915 77.0408 80.8881 77.1667C80.3572 77.9378 79.816 78.7018 79.2645 79.4583C79.0363 79.3982 78.953 79.2593 79.0147 79.0417C79.489 78.3143 79.9192 77.5643 80.3053 76.7917ZM23.438 77.0417C24.1166 77.0856 24.8105 77.1828 25.5195 77.3333C26.8851 79.3678 28.4392 81.2567 30.1821 83C29.5792 83.1476 28.9826 83.3281 28.392 83.5417C26.215 81.6963 24.2722 79.6408 22.5637 77.375C22.5258 77.2713 22.5674 77.2019 22.6886 77.1667C22.9547 77.1516 23.2044 77.1099 23.438 77.0417ZM21.523 77.4583C21.708 77.4315 21.8607 77.4871 21.9809 77.625C23.6436 79.8731 25.517 81.9426 27.601 83.8333C26.9752 84.16 26.3924 84.5492 25.8526 85C25.797 85.0558 25.7416 85.0558 25.686 85C23.481 83.1125 21.4272 81.0708 19.5247 78.875C20.1055 78.2791 20.7716 77.8068 21.523 77.4583ZM81.4709 77.5417C81.6755 77.5853 81.8698 77.6547 82.0538 77.75C81.4082 78.6187 80.7005 79.4381 79.9306 80.2083C79.8613 80.1389 79.7918 80.0694 79.7225 80C80.3903 79.2355 80.9731 78.416 81.4709 77.5417ZM18.9419 79.4583C19.4544 79.8953 19.9124 80.3953 20.3157 80.9583C21.8288 82.6237 23.4524 84.165 25.1865 85.5833C24.5981 86.1725 24.1401 86.8533 23.8127 87.625C21.632 86.1008 19.606 84.3783 17.7346 82.4583C17.7691 81.9092 17.9079 81.3814 18.1509 80.875C18.4166 80.3983 18.6803 79.926 18.9419 79.4583ZM78.6401 79.625C78.932 79.6763 79.0013 79.8153 78.8482 80.0417C78.3328 80.7391 77.7777 81.4058 77.183 82.0417C77.0494 81.9943 76.994 81.911 77.0165 81.7917C77.5787 81.0818 78.1199 80.3597 78.6401 79.625ZM78.2238 81.9583C78.561 81.4393 78.9495 80.9532 79.3894 80.5C79.4914 80.4531 79.5747 80.4808 79.6392 80.5833C79.1784 81.0586 78.7065 81.5169 78.2238 81.9583ZM76.6418 82.2083C76.7969 82.2372 76.8663 82.3205 76.85 82.4583C76.2394 83.125 75.6288 83.7917 75.0182 84.4583C74.9386 84.3683 74.8693 84.2708 74.8101 84.1667C75.4682 83.55 76.0788 82.8971 76.6418 82.2083ZM30.2654 83.5417C30.5479 83.505 30.7977 83.575 31.0147 83.75C32.6456 85.2867 34.3941 86.6617 36.2602 87.875C35.8801 88.0308 35.5054 88.1975 35.1362 88.375C32.9301 87.1108 30.8624 85.6525 28.9332 84C29.3666 83.795 29.8106 83.6425 30.2654 83.5417ZM28.0173 84.2917C30.019 85.9467 32.1283 87.4608 34.3452 88.8333C33.8865 89.195 33.4702 89.5983 33.0963 90.0417C30.6725 88.7117 28.3967 87.17 26.2689 85.4167C26.8288 84.9983 27.4116 84.6233 28.0173 84.2917ZM74.3105 84.5417C74.5115 84.6175 74.5808 84.7558 74.5186 84.9583C74.144 85.3333 73.7693 85.7083 73.3946 86.0833C73.239 86.2167 73.0725 86.3 72.8951 86.3333C72.8221 86.2008 72.7389 86.0758 72.6453 85.9583C73.2373 85.5242 73.7923 85.0517 74.3105 84.5417ZM25.6028 85.9583C27.8069 87.7325 30.1382 89.33 32.5967 90.75C32.395 91.1608 32.2423 91.5917 32.1388 92.0417C29.3895 90.9367 26.7946 89.5617 24.3539 87.9167C24.6557 87.1867 25.072 86.5342 25.6028 85.9583ZM72.0624 86.2917C72.2272 86.4008 72.3659 86.54 72.4788 86.7083C72.0282 87.0517 71.5703 87.385 71.1049 87.7083C70.996 87.53 70.8711 87.3633 70.7303 87.2083C71.2088 86.9417 71.6529 86.6367 72.0624 86.2917ZM70.1474 87.4583C70.3244 87.5908 70.4909 87.7433 70.647 87.9167C70.1281 88.2967 69.5869 88.6442 69.0234 88.9583C68.9013 88.7275 68.7487 88.5192 68.5655 88.3333C69.0979 88.0392 69.6253 87.7475 70.1474 87.4583ZM36.6765 88.2917C36.818 88.2783 36.9567 88.2925 37.0928 88.3333C38.6184 89.2217 40.2004 89.9992 41.8387 90.6667C41.6019 90.8483 41.3659 91.0292 41.131 91.2083C39.3418 90.5425 37.6072 89.7508 35.9271 88.8333C35.8162 88.7775 35.8162 88.7225 35.9271 88.6667C36.1892 88.5483 36.439 88.4233 36.6765 88.2917ZM67.9827 88.5417C68.3019 88.6542 68.4823 88.8758 68.5238 89.2083C68.0663 89.4375 67.6222 89.6875 67.1917 89.9583C67.0695 89.7275 66.9169 89.5192 66.7337 89.3333C67.1554 89.0675 67.5717 88.8033 67.9827 88.5417ZM34.8447 89.2083C36.7117 90.1983 38.6267 91.1008 40.5898 91.9167C40.2874 92.315 39.9959 92.7175 39.7155 93.125C37.6234 92.3625 35.6113 91.4325 33.6791 90.3333C34.0509 89.9392 34.4394 89.5642 34.8447 89.2083ZM66.3174 89.4583C66.5768 89.6192 66.7294 89.8408 66.7754 90.125C66.2306 90.425 65.6756 90.7033 65.1101 90.9583C65.0395 90.6917 64.9146 90.4558 64.7355 90.25C65.2911 90.0275 65.8184 89.7633 66.3174 89.4583ZM64.1526 90.4583C64.4215 90.6342 64.588 90.8842 64.6522 91.2083C64.0151 91.4225 63.3906 91.6725 62.7788 91.9583C62.5187 91.735 62.3938 91.4708 62.4042 91.1667C63.012 90.9692 63.5948 90.7333 64.1526 90.4583ZM42.4215 90.875C44.1691 91.465 45.9454 91.9508 47.7502 92.3333C47.5526 92.5033 47.386 92.6975 47.2506 92.9167C45.3653 92.6208 43.5335 92.1208 41.7554 91.4167C41.9931 91.2475 42.2152 91.0667 42.4215 90.875ZM33.1795 91.0417C35.2265 92.1908 37.3635 93.1358 39.5906 93.875C39.5906 93.9583 39.5906 94.0417 39.5906 94.125C37.3174 93.7233 35.0971 93.1258 32.9297 92.3333C32.84 92.2775 32.7845 92.1942 32.7632 92.0833C32.8451 91.7117 32.9839 91.3642 33.1795 91.0417ZM61.8213 91.2917C61.9273 91.5817 62.0938 91.845 62.3209 92.0833C61.6922 92.3442 61.0538 92.58 60.4059 92.7917C60.1047 92.5783 59.8827 92.3 59.7398 91.9583C60.4549 91.7733 61.1487 91.5508 61.8213 91.2917ZM59.0737 92.0417C59.1838 92.0275 59.281 92.055 59.3651 92.125C59.4454 92.4558 59.6258 92.72 59.9063 92.9167C59.196 93.07 58.4883 93.2225 57.7832 93.375C57.5827 93.0783 57.43 92.7592 57.3252 92.4167C57.9265 92.3258 58.5094 92.2008 59.0737 92.0417ZM41.1726 92.125C42.997 92.8033 44.8566 93.3725 46.7511 93.8333C46.6434 94.17 46.5741 94.5167 46.5429 94.875C44.4495 94.5633 42.4096 94.0492 40.4232 93.3333C40.6635 92.9208 40.9133 92.5183 41.1726 92.125ZM48.333 92.375C49.1043 92.5067 49.8814 92.59 50.6644 92.625C50.661 92.9067 50.6887 93.1842 50.7476 93.4583C49.7842 93.4275 48.8405 93.2892 47.9167 93.0417C48.0599 92.8167 48.1987 92.5942 48.333 92.375ZM56.6591 92.4583C56.7701 92.4583 56.8812 92.4583 56.9922 92.4583C57.0085 92.7892 57.1196 93.0808 57.3252 93.3333C56.7274 93.5083 56.1168 93.5642 55.4935 93.5C55.3651 93.2225 55.2818 92.9308 55.2437 92.625C55.7327 92.6167 56.2045 92.5617 56.6591 92.4583ZM51.0807 92.7083C52.3018 92.7083 53.523 92.7083 54.7441 92.7083C54.752 93.0117 54.8075 93.3033 54.9107 93.5833C53.6604 93.6425 52.4115 93.6283 51.1639 93.5417C51.1543 93.2617 51.1265 92.9842 51.0807 92.7083ZM47.4172 93.9583C48.5484 94.1542 49.6863 94.3067 50.8309 94.4167C50.98 94.4517 51.091 94.535 51.1639 94.6667C49.8891 94.7717 48.6124 94.8408 47.3339 94.875C47.3275 94.5658 47.3552 94.26 47.4172 93.9583ZM51.6635 94.5417C51.8314 94.4275 51.9979 94.4408 52.163 94.5833C51.9884 94.64 51.8218 94.6258 51.6635 94.5417Z" fill="url(#paint0_linear_5_67)"/>
<path opacity="0.01" fill-rule="evenodd" clip-rule="evenodd" d="M64.1526 10.4583C64.0971 10.3473 64.0971 10.3473 64.1526 10.4583Z" fill="url(#paint1_linear_5_67)"/>
<path opacity="0.01" fill-rule="evenodd" clip-rule="evenodd" d="M64.1526 10.4583C64.2352 10.444 64.2907 10.4718 64.3192 10.5417C64.2366 10.556 64.1811 10.5282 64.1526 10.4583Z" fill="url(#paint2_linear_5_67)"/>
<path opacity="0.01" fill-rule="evenodd" clip-rule="evenodd" d="M64.3192 10.5417C64.3807 10.5307 64.4362 10.5447 64.4857 10.5833C64.4077 10.641 64.3522 10.6271 64.3192 10.5417Z" fill="url(#paint3_linear_5_67)"/>
<path opacity="0.01" fill-rule="evenodd" clip-rule="evenodd" d="M69.4814 11.7083C69.5144 11.6229 69.5699 11.609 69.6479 11.6667C69.5984 11.7053 69.5429 11.7192 69.4814 11.7083Z" fill="url(#paint4_linear_5_67)"/>
<path opacity="0.01" fill-rule="evenodd" clip-rule="evenodd" d="M69.9809 11.7917C70.0919 11.8472 70.0919 11.8472 69.9809 11.7917Z" fill="url(#paint5_linear_5_67)"/>
<path opacity="0.01" fill-rule="evenodd" clip-rule="evenodd" d="M64.8187 11.875C64.7632 11.9306 64.7632 11.9306 64.8187 11.875Z" fill="url(#paint6_linear_5_67)"/>
<path opacity="0.01" fill-rule="evenodd" clip-rule="evenodd" d="M70.2307 11.9583C70.1752 11.8473 70.1752 11.8473 70.2307 11.9583Z" fill="url(#paint7_linear_5_67)"/>
<path opacity="0.783" fill-rule="evenodd" clip-rule="evenodd" d="M32.3469 11.9583C32.6027 11.9319 32.8525 11.9597 33.0963 12.0417C23.3975 13.8273 15.9178 18.8551 10.6574 27.125C8.93607 29.8762 7.50673 32.7651 6.36946 35.7917C6.31365 35.4275 6.35528 35.0664 6.49436 34.7083C8.70918 28.0506 12.4976 22.4811 17.8595 18C22.1575 14.7245 26.9866 12.7107 32.3469 11.9583Z" fill="url(#paint8_linear_5_67)"/>
<path opacity="0.01" fill-rule="evenodd" clip-rule="evenodd" d="M65.0685 11.9583C65.013 12.0139 65.013 12.0139 65.0685 11.9583Z" fill="url(#paint9_linear_5_67)"/>
<path opacity="0.01" fill-rule="evenodd" clip-rule="evenodd" d="M69.8144 12.0417C69.7589 11.9306 69.7589 11.9306 69.8144 12.0417Z" fill="url(#paint10_linear_5_67)"/>
<path opacity="0.01" fill-rule="evenodd" clip-rule="evenodd" d="M69.9809 11.9583C70.0919 12.0139 70.0919 12.0139 69.9809 11.9583Z" fill="url(#paint11_linear_5_67)"/>
<path opacity="0.01" fill-rule="evenodd" clip-rule="evenodd" d="M70.2307 11.9583C70.3417 12.0139 70.3417 12.0139 70.2307 11.9583Z" fill="url(#paint12_linear_5_67)"/>
<path opacity="0.01" fill-rule="evenodd" clip-rule="evenodd" d="M69.8144 12.0417C69.8699 12.0417 69.9254 12.0417 69.9809 12.0417C69.9254 12.1527 69.8699 12.1527 69.8144 12.0417Z" fill="url(#paint13_linear_5_67)"/>
<path opacity="0.01" fill-rule="evenodd" clip-rule="evenodd" d="M70.2307 12.0417C70.2307 12.0694 70.2307 12.0972 70.2307 12.125C70.1749 12.0849 70.1749 12.0571 70.2307 12.0417Z" fill="url(#paint14_linear_5_67)"/>
<path opacity="0.01" fill-rule="evenodd" clip-rule="evenodd" d="M70.2307 12.125C70.3429 12.1809 70.44 12.1809 70.5221 12.125C70.5453 12.2013 70.5869 12.2568 70.647 12.2917C70.647 12.3194 70.647 12.3473 70.647 12.375C70.466 12.3542 70.3272 12.2708 70.2307 12.125Z" fill="url(#paint15_linear_5_67)"/>
<path opacity="0.01" fill-rule="evenodd" clip-rule="evenodd" d="M70.647 12.2083C70.758 12.2639 70.758 12.2639 70.647 12.2083Z" fill="url(#paint16_linear_5_67)"/>
<path opacity="0.01" fill-rule="evenodd" clip-rule="evenodd" d="M70.647 12.375C70.7296 12.3607 70.7851 12.3885 70.8135 12.4583C70.7309 12.4727 70.6755 12.4448 70.647 12.375Z" fill="url(#paint17_linear_5_67)"/>
<path opacity="0.01" fill-rule="evenodd" clip-rule="evenodd" d="M70.8135 12.4583C70.9407 12.4523 71.0239 12.5078 71.0633 12.625C70.9362 12.6311 70.8529 12.5755 70.8135 12.4583Z" fill="url(#paint18_linear_5_67)"/>
<path opacity="0.014" fill-rule="evenodd" clip-rule="evenodd" d="M71.0633 12.625C71.1679 12.6217 71.2512 12.6634 71.3131 12.75C71.1884 12.7987 71.1051 12.7571 71.0633 12.625Z" fill="url(#paint19_linear_5_67)"/>
<path opacity="0.01" fill-rule="evenodd" clip-rule="evenodd" d="M70.9801 12.7917C70.9245 12.6806 70.9245 12.6806 70.9801 12.7917Z" fill="url(#paint20_linear_5_67)"/>
<path opacity="0.01" fill-rule="evenodd" clip-rule="evenodd" d="M70.98 12.7917C71.091 12.8472 71.091 12.8472 70.98 12.7917Z" fill="url(#paint21_linear_5_67)"/>
<path opacity="0.01" fill-rule="evenodd" clip-rule="evenodd" d="M70.647 13.125C70.5915 13.0139 70.5915 13.0139 70.647 13.125Z" fill="url(#paint22_linear_5_67)"/>
<path opacity="0.01" fill-rule="evenodd" clip-rule="evenodd" d="M70.98 13.0417C71.091 13.0972 71.091 13.0972 70.98 13.0417Z" fill="url(#paint23_linear_5_67)"/>
<path opacity="0.01" fill-rule="evenodd" clip-rule="evenodd" d="M71.7294 13.0417C71.8404 13.0972 71.8404 13.0972 71.7294 13.0417Z" fill="url(#paint24_linear_5_67)"/>
<path opacity="0.01" fill-rule="evenodd" clip-rule="evenodd" d="M70.647 13.125C70.7025 13.125 70.7303 13.1528 70.7303 13.2083C70.7025 13.1806 70.6747 13.1528 70.647 13.125Z" fill="url(#paint25_linear_5_67)"/>
<path opacity="0.036" fill-rule="evenodd" clip-rule="evenodd" d="M71.7294 13.125C71.7571 13.1806 71.7849 13.2361 71.8127 13.2917C71.5662 13.2473 71.5385 13.1918 71.7294 13.125Z" fill="url(#paint26_linear_5_67)"/>
<path opacity="0.01" fill-rule="evenodd" clip-rule="evenodd" d="M70.7303 13.2083C70.8413 13.2639 70.8413 13.2639 70.7303 13.2083Z" fill="url(#paint27_linear_5_67)"/>
<path opacity="0.01" fill-rule="evenodd" clip-rule="evenodd" d="M70.8968 13.2083C71.0078 13.2639 71.0078 13.2639 70.8968 13.2083Z" fill="url(#paint28_linear_5_67)"/>
<path opacity="0.774" fill-rule="evenodd" clip-rule="evenodd" d="M33.2628 14.125C33.5307 14.1376 33.5585 14.207 33.3461 14.3333C31.5911 14.9837 29.8426 15.6503 28.1006 16.3333C21.1103 19.3575 15.9342 24.288 12.5724 31.125C12.0383 32.3546 11.5665 33.5768 11.157 34.7917C11.1293 34.7639 11.1014 34.7361 11.0737 34.7083C11.0356 34.4535 11.0634 34.2035 11.157 33.9583C13.1284 28.0703 16.556 23.2231 21.4397 19.4167C23.5227 17.9155 25.7707 16.6933 28.1839 15.75C29.8726 15.1633 31.5655 14.6217 33.2628 14.125Z" fill="url(#paint29_linear_5_67)"/>
<path opacity="0.787" fill-rule="evenodd" clip-rule="evenodd" d="M77.8907 69.875C78.0017 69.875 78.1128 69.875 78.2238 69.875C77.0604 74.3558 74.7569 78.1475 71.3131 81.25C64.3633 87.07 56.4535 88.9583 47.5837 86.9167C47.2098 86.8108 46.8491 86.6717 46.5013 86.5C48.2359 86.8125 49.9844 87.0625 51.7467 87.25C60.1831 87.6958 67.3019 84.8767 73.1032 78.7917C75.3932 76.2085 76.9891 73.2363 77.8907 69.875Z" fill="url(#paint30_linear_5_67)"/>
<path opacity="0.809" fill-rule="evenodd" clip-rule="evenodd" d="M69.4814 72.9583C69.5543 72.9474 69.6098 72.9752 69.6479 73.0417C67.9578 75.5693 65.6821 77.3609 62.8205 78.4167C59.9111 79.4946 56.9137 79.8835 53.8283 79.5833C53.5346 79.5041 53.2571 79.393 52.9957 79.25C58.5391 79.9094 63.4515 78.4649 67.7329 74.9167C68.3591 74.3038 68.9419 73.6509 69.4814 72.9583Z" fill="url(#paint31_linear_5_67)"/>
</g>
<defs>
<linearGradient id="paint0_linear_5_67" x1="51.4785" y1="9.70834" x2="51.4785" y2="96.354" gradientUnits="userSpaceOnUse">
<stop offset="0.479167" stop-color="#00B2FF"/>
<stop offset="0.515625" stop-color="#FF5C00"/>
</linearGradient>
<linearGradient id="paint1_linear_5_67" x1="64.1318" y1="10.375" x2="64.1318" y2="10.4583" gradientUnits="userSpaceOnUse">
<stop offset="0.479167" stop-color="#00B2FF"/>
<stop offset="0.515625" stop-color="#FF5C00"/>
</linearGradient>
<linearGradient id="paint2_linear_5_67" x1="64.2359" y1="10.4547" x2="64.2359" y2="10.5453" gradientUnits="userSpaceOnUse">
<stop offset="0.479167" stop-color="#00B2FF"/>
<stop offset="0.515625" stop-color="#FF5C00"/>
</linearGradient>
<linearGradient id="paint3_linear_5_67" x1="64.4024" y1="10.5381" x2="64.4024" y2="10.6182" gradientUnits="userSpaceOnUse">
<stop offset="0.479167" stop-color="#00B2FF"/>
<stop offset="0.515625" stop-color="#FF5C00"/>
</linearGradient>
<linearGradient id="paint4_linear_5_67" x1="69.5646" y1="11.6318" x2="69.5646" y2="11.7119" gradientUnits="userSpaceOnUse">
<stop offset="0.479167" stop-color="#00B2FF"/>
<stop offset="0.515625" stop-color="#FF5C00"/>
</linearGradient>
<linearGradient id="paint5_linear_5_67" x1="70.0225" y1="11.7917" x2="70.0225" y2="11.8333" gradientUnits="userSpaceOnUse">
<stop offset="0.479167" stop-color="#00B2FF"/>
<stop offset="0.515625" stop-color="#FF5C00"/>
</linearGradient>
<linearGradient id="paint6_linear_5_67" x1="64.7979" y1="11.875" x2="64.7979" y2="11.9167" gradientUnits="userSpaceOnUse">
<stop offset="0.479167" stop-color="#00B2FF"/>
<stop offset="0.515625" stop-color="#FF5C00"/>
</linearGradient>
<linearGradient id="paint7_linear_5_67" x1="70.2099" y1="11.875" x2="70.2099" y2="11.9583" gradientUnits="userSpaceOnUse">
<stop offset="0.479167" stop-color="#00B2FF"/>
<stop offset="0.515625" stop-color="#FF5C00"/>
</linearGradient>
<linearGradient id="paint8_linear_5_67" x1="19.7209" y1="11.9487" x2="19.7209" y2="35.7917" gradientUnits="userSpaceOnUse">
<stop offset="0.479167" stop-color="#00B2FF"/>
<stop offset="0.515625" stop-color="#FF5C00"/>
</linearGradient>
<linearGradient id="paint9_linear_5_67" x1="65.0477" y1="11.9583" x2="65.0477" y2="12" gradientUnits="userSpaceOnUse">
<stop offset="0.479167" stop-color="#00B2FF"/>
<stop offset="0.515625" stop-color="#FF5C00"/>
</linearGradient>
<linearGradient id="paint10_linear_5_67" x1="69.7936" y1="11.9583" x2="69.7936" y2="12.0417" gradientUnits="userSpaceOnUse">
<stop offset="0.479167" stop-color="#00B2FF"/>
<stop offset="0.515625" stop-color="#FF5C00"/>
</linearGradient>
<linearGradient id="paint11_linear_5_67" x1="70.0225" y1="11.9583" x2="70.0225" y2="12" gradientUnits="userSpaceOnUse">
<stop offset="0.479167" stop-color="#00B2FF"/>
<stop offset="0.515625" stop-color="#FF5C00"/>
</linearGradient>
<linearGradient id="paint12_linear_5_67" x1="70.2723" y1="11.9583" x2="70.2723" y2="12" gradientUnits="userSpaceOnUse">
<stop offset="0.479167" stop-color="#00B2FF"/>
<stop offset="0.515625" stop-color="#FF5C00"/>
</linearGradient>
<linearGradient id="paint13_linear_5_67" x1="69.8977" y1="12.0417" x2="69.8977" y2="12.125" gradientUnits="userSpaceOnUse">
<stop offset="0.479167" stop-color="#00B2FF"/>
<stop offset="0.515625" stop-color="#FF5C00"/>
</linearGradient>
<linearGradient id="paint14_linear_5_67" x1="70.2098" y1="12.0417" x2="70.2098" y2="12.125" gradientUnits="userSpaceOnUse">
<stop offset="0.479167" stop-color="#00B2FF"/>
<stop offset="0.515625" stop-color="#FF5C00"/>
</linearGradient>
<linearGradient id="paint15_linear_5_67" x1="70.4389" y1="12.125" x2="70.4389" y2="12.375" gradientUnits="userSpaceOnUse">
<stop offset="0.479167" stop-color="#00B2FF"/>
<stop offset="0.515625" stop-color="#FF5C00"/>
</linearGradient>
<linearGradient id="paint16_linear_5_67" x1="70.6886" y1="12.2083" x2="70.6886" y2="12.25" gradientUnits="userSpaceOnUse">
<stop offset="0.479167" stop-color="#00B2FF"/>
<stop offset="0.515625" stop-color="#FF5C00"/>
</linearGradient>
<linearGradient id="paint17_linear_5_67" x1="70.7303" y1="12.3713" x2="70.7303" y2="12.462" gradientUnits="userSpaceOnUse">
<stop offset="0.479167" stop-color="#00B2FF"/>
<stop offset="0.515625" stop-color="#FF5C00"/>
</linearGradient>
<linearGradient id="paint18_linear_5_67" x1="70.9384" y1="12.4579" x2="70.9384" y2="12.6255" gradientUnits="userSpaceOnUse">
<stop offset="0.479167" stop-color="#00B2FF"/>
<stop offset="0.515625" stop-color="#FF5C00"/>
</linearGradient>
<linearGradient id="paint19_linear_5_67" x1="71.1882" y1="12.6248" x2="71.1882" y2="12.7697" gradientUnits="userSpaceOnUse">
<stop offset="0.479167" stop-color="#00B2FF"/>
<stop offset="0.515625" stop-color="#FF5C00"/>
</linearGradient>
<linearGradient id="paint20_linear_5_67" x1="70.9592" y1="12.7083" x2="70.9592" y2="12.7917" gradientUnits="userSpaceOnUse">
<stop offset="0.479167" stop-color="#00B2FF"/>
<stop offset="0.515625" stop-color="#FF5C00"/>
</linearGradient>
<linearGradient id="paint21_linear_5_67" x1="71.0217" y1="12.7917" x2="71.0217" y2="12.8333" gradientUnits="userSpaceOnUse">
<stop offset="0.479167" stop-color="#00B2FF"/>
<stop offset="0.515625" stop-color="#FF5C00"/>
</linearGradient>
<linearGradient id="paint22_linear_5_67" x1="70.6262" y1="13.0417" x2="70.6262" y2="13.125" gradientUnits="userSpaceOnUse">
<stop offset="0.479167" stop-color="#00B2FF"/>
<stop offset="0.515625" stop-color="#FF5C00"/>
</linearGradient>
<linearGradient id="paint23_linear_5_67" x1="71.0217" y1="13.0417" x2="71.0217" y2="13.0833" gradientUnits="userSpaceOnUse">
<stop offset="0.479167" stop-color="#00B2FF"/>
<stop offset="0.515625" stop-color="#FF5C00"/>
</linearGradient>
<linearGradient id="paint24_linear_5_67" x1="71.771" y1="13.0417" x2="71.771" y2="13.0833" gradientUnits="userSpaceOnUse">
<stop offset="0.479167" stop-color="#00B2FF"/>
<stop offset="0.515625" stop-color="#FF5C00"/>
</linearGradient>
<linearGradient id="paint25_linear_5_67" x1="70.6886" y1="13.125" x2="70.6886" y2="13.2083" gradientUnits="userSpaceOnUse">
<stop offset="0.479167" stop-color="#00B2FF"/>
<stop offset="0.515625" stop-color="#FF5C00"/>
</linearGradient>
<linearGradient id="paint26_linear_5_67" x1="71.7085" y1="13.125" x2="71.7085" y2="13.2917" gradientUnits="userSpaceOnUse">
<stop offset="0.479167" stop-color="#00B2FF"/>
<stop offset="0.515625" stop-color="#FF5C00"/>
</linearGradient>
<linearGradient id="paint27_linear_5_67" x1="70.7719" y1="13.2083" x2="70.7719" y2="13.25" gradientUnits="userSpaceOnUse">
<stop offset="0.479167" stop-color="#00B2FF"/>
<stop offset="0.515625" stop-color="#FF5C00"/>
</linearGradient>
<linearGradient id="paint28_linear_5_67" x1="70.9384" y1="13.2083" x2="70.9384" y2="13.25" gradientUnits="userSpaceOnUse">
<stop offset="0.479167" stop-color="#00B2FF"/>
<stop offset="0.515625" stop-color="#FF5C00"/>
</linearGradient>
<linearGradient id="paint29_linear_5_67" x1="22.2721" y1="14.125" x2="22.2721" y2="34.7917" gradientUnits="userSpaceOnUse">
<stop offset="0.479167" stop-color="#00B2FF"/>
<stop offset="0.515625" stop-color="#FF5C00"/>
</linearGradient>
<linearGradient id="paint30_linear_5_67" x1="62.3625" y1="69.875" x2="62.3625" y2="87.7121" gradientUnits="userSpaceOnUse">
<stop offset="0.479167" stop-color="#00B2FF"/>
<stop offset="0.515625" stop-color="#FF5C00"/>
</linearGradient>
<linearGradient id="paint31_linear_5_67" x1="61.3218" y1="72.956" x2="61.3218" y2="79.6814" gradientUnits="userSpaceOnUse">
<stop offset="0.479167" stop-color="#00B2FF"/>
<stop offset="0.515625" stop-color="#FF5C00"/>
</linearGradient>
</defs>
</svg>
