<svg width="30" height="38" viewBox="0 0 30 38" fill="none" xmlns="http://www.w3.org/2000/svg">
  <path opacity="0.992" fill-rule="evenodd" clip-rule="evenodd" d="M2.64258 -0.0371094C3.08789 -0.0371094 3.53321 -0.0371094 3.97852 -0.0371094C5.0224 0.311744 5.98725 0.818907 6.87305 1.48438C13.8249 6.25911 20.7767 11.0339 27.7285 15.8086C29.6225 17.6607 29.7585 19.6275 28.1367 21.709C27.8027 21.9935 27.4688 22.278 27.1348 22.5625C20.0216 27.3931 12.9214 32.242 5.83399 37.1094C5.22918 37.4987 4.586 37.7832 3.9043 37.9629C3.4837 37.9629 3.06316 37.9629 2.64258 37.9629C1.69608 37.6217 1.08996 36.9537 0.824221 35.959C0.753104 35.6159 0.703623 35.2695 0.675783 34.9199C0.626301 24.2819 0.626301 13.6439 0.675783 3.00586C0.690812 2.01954 1.0248 1.16602 1.67774 0.445312C1.9855 0.241949 2.30711 0.0811419 2.64258 -0.0371094Z" fill="none"/>
</svg>
